<?xml version="1.0" standalone="no"?>
 <!DOCTYPE svg PUBLIC "-//W3C//DTD SVG 1.1//EN" 
 "http://www.w3.org/Graphics/SVG/1.1/DTD/svg11.dtd"> 
<svg xmlns="http://www.w3.org/2000/svg" version="1.1" 
    width="29.7002cm" height="21.0007cm" viewBox="0 0 116930 82680 ">
<title>SVG Picture created as MatrixDisplay-drl_map.svg date 2016/08/08 18:38:01 </title>
  <desc>Picture generated by PCBNEW </desc>
<g style="fill:#000000; fill-opacity:1;stroke:#000000; stroke-opacity:1;
stroke-linecap:round; stroke-linejoin:round; "
 transform="translate(0 0) scale(1 1)">
</g>
<g style="fill:#000000; fill-opacity:0.0; 
stroke:#000000; stroke-width:-0.000393701; stroke-opacity:1; 
stroke-linecap:round; stroke-linejoin:round;">
</g>
<g style="fill:#000000; fill-opacity:0.0; 
stroke:#000000; stroke-width:59.0551; stroke-opacity:1; 
stroke-linecap:round; stroke-linejoin:round;">
<path d="M42250 14175
L42250 51975
" />
<path d="M67450 14175
L42250 14175
" />
<path d="M67450 51975
L67450 14175
" />
<path d="M42250 51975
L67450 51975
" />
</g>
<g style="fill:#000000; fill-opacity:0.0; 
stroke:#000000; stroke-width:78.7402; stroke-opacity:1; 
stroke-linecap:round; stroke-linejoin:round;">
<path d="M45821 17896
L45978 18053
" />
<path d="M45978 17896
L45821 18053
" />
<path d="M45821 19246
L45978 19403
" />
<path d="M45978 19246
L45821 19403
" />
<path d="M46221 49946
L46378 50103
" />
<path d="M46378 49946
L46221 50103
" />
<path d="M46221 51396
L46378 51553
" />
<path d="M46378 51396
L46221 51553
" />
<path d="M46271 23296
L46428 23453
" />
<path d="M46428 23296
L46271 23453
" />
<path d="M46321 20246
L46478 20403
" />
<path d="M46478 20246
L46321 20403
" />
<path d="M46371 31346
L46528 31503
" />
<path d="M46528 31346
L46371 31503
" />
<path d="M46421 18746
L46578 18903
" />
<path d="M46578 18746
L46421 18903
" />
<path d="M46421 43946
L46578 44103
" />
<path d="M46578 43946
L46421 44103
" />
<path d="M46421 45446
L46578 45603
" />
<path d="M46578 45446
L46421 45603
" />
<path d="M46471 32846
L46628 33003
" />
<path d="M46628 32846
L46471 33003
" />
<path d="M46471 35346
L46628 35503
" />
<path d="M46628 35346
L46471 35503
" />
<path d="M46471 47946
L46628 48103
" />
<path d="M46628 47946
L46471 48103
" />
<path d="M47321 41888
L47478 42045
" />
<path d="M47478 41888
L47321 42045
" />
<path d="M47421 29338
L47578 29495
" />
<path d="M47578 29338
L47421 29495
" />
<path d="M47821 18846
L47978 19003
" />
<path d="M47978 18846
L47821 19003
" />
<path d="M47821 19846
L47978 20003
" />
<path d="M47978 19846
L47821 20003
" />
<path d="M47821 21371
L47978 21528
" />
<path d="M47978 21371
L47821 21528
" />
<path d="M47821 22346
L47978 22503
" />
<path d="M47978 22346
L47821 22503
" />
<path d="M47821 31548
L47978 31705
" />
<path d="M47978 31548
L47821 31705
" />
<path d="M47821 32146
L47978 32303
" />
<path d="M47978 32146
L47821 32303
" />
<path d="M47821 34046
L47978 34203
" />
<path d="M47978 34046
L47821 34203
" />
<path d="M47821 34646
L47978 34803
" />
<path d="M47978 34646
L47821 34803
" />
<path d="M47821 44046
L47978 44203
" />
<path d="M47978 44046
L47821 44203
" />
<path d="M47821 44746
L47978 44903
" />
<path d="M47978 44746
L47821 44903
" />
<path d="M47821 46646
L47978 46803
" />
<path d="M47978 46646
L47821 46803
" />
<path d="M47821 47296
L47978 47453
" />
<path d="M47978 47296
L47821 47453
" />
<path d="M48197 37946
L48354 38103
" />
<path d="M48354 37946
L48197 38103
" />
<path d="M48197 38246
L48354 38403
" />
<path d="M48354 38246
L48197 38403
" />
<path d="M48945 25396
L49102 25553
" />
<path d="M49102 25396
L48945 25553
" />
<path d="M48945 25696
L49102 25853
" />
<path d="M49102 25696
L48945 25853
" />
<path d="M49371 19846
L49528 20003
" />
<path d="M49528 19846
L49371 20003
" />
<path d="M49371 20671
L49528 20828
" />
<path d="M49528 20671
L49371 20828
" />
<path d="M49371 32548
L49528 32705
" />
<path d="M49528 32548
L49371 32705
" />
<path d="M49371 33144
L49528 33301
" />
<path d="M49528 33144
L49371 33301
" />
<path d="M49371 44896
L49528 45053
" />
<path d="M49528 44896
L49371 45053
" />
<path d="M49371 45871
L49528 46028
" />
<path d="M49528 45871
L49371 46028
" />
<path d="M49629 29338
L49786 29495
" />
<path d="M49786 29338
L49629 29495
" />
<path d="M49671 41888
L49828 42045
" />
<path d="M49828 41888
L49671 42045
" />
<path d="M50621 22746
L50778 22903
" />
<path d="M50778 22746
L50621 22903
" />
<path d="M50621 47946
L50778 48103
" />
<path d="M50778 47946
L50621 48103
" />
<path d="M50671 35346
L50828 35503
" />
<path d="M50828 35346
L50671 35503
" />
<path d="M50921 18246
L51078 18403
" />
<path d="M51078 18246
L50921 18403
" />
<path d="M50971 30846
L51128 31003
" />
<path d="M51128 30846
L50971 31003
" />
<path d="M51021 43446
L51178 43603
" />
<path d="M51178 43446
L51021 43603
" />
<path d="M51821 22996
L51978 23153
" />
<path d="M51978 22996
L51821 23153
" />
<path d="M51871 35596
L52028 35753
" />
<path d="M52028 35596
L51871 35753
" />
<path d="M52121 48346
L52278 48503
" />
<path d="M52278 48346
L52121 48503
" />
<path d="M54771 36546
L54928 36703
" />
<path d="M54928 36546
L54771 36703
" />
<path d="M57771 37346
L57928 37503
" />
<path d="M57928 37346
L57771 37503
" />
<path d="M58821 49946
L58978 50103
" />
<path d="M58978 49946
L58821 50103
" />
<path d="M58821 51396
L58978 51553
" />
<path d="M58978 51396
L58821 51553
" />
<path d="M58971 20246
L59128 20403
" />
<path d="M59128 20246
L58971 20403
" />
<path d="M58971 32846
L59128 33003
" />
<path d="M59128 32846
L58971 33003
" />
<path d="M58971 35346
L59128 35503
" />
<path d="M59128 35346
L58971 35503
" />
<path d="M58971 45446
L59128 45603
" />
<path d="M59128 45446
L58971 45603
" />
<path d="M58971 47946
L59128 48103
" />
<path d="M59128 47946
L58971 48103
" />
<path d="M59021 18746
L59178 18903
" />
<path d="M59178 18746
L59021 18903
" />
<path d="M59021 22746
L59178 22903
" />
<path d="M59178 22746
L59021 22903
" />
<path d="M59071 31346
L59228 31503
" />
<path d="M59228 31346
L59071 31503
" />
<path d="M59071 43946
L59228 44103
" />
<path d="M59228 43946
L59071 44103
" />
<path d="M60021 29396
L60178 29553
" />
<path d="M60178 29396
L60021 29553
" />
<path d="M60021 41446
L60178 41603
" />
<path d="M60178 41446
L60021 41603
" />
<path d="M60021 41888
L60178 42045
" />
<path d="M60178 41888
L60021 42045
" />
<path d="M60421 31546
L60578 31703
" />
<path d="M60578 31546
L60421 31703
" />
<path d="M60421 32144
L60578 32301
" />
<path d="M60578 32144
L60421 32301
" />
<path d="M60421 34048
L60578 34205
" />
<path d="M60578 34048
L60421 34205
" />
<path d="M60421 34644
L60578 34801
" />
<path d="M60578 34644
L60421 34801
" />
<path d="M60421 44044
L60578 44201
" />
<path d="M60578 44044
L60421 44201
" />
<path d="M60421 44996
L60578 45153
" />
<path d="M60578 44996
L60421 45153
" />
<path d="M60421 46646
L60578 46803
" />
<path d="M60578 46646
L60421 46803
" />
<path d="M60421 47296
L60578 47453
" />
<path d="M60578 47296
L60421 47453
" />
<path d="M60797 37946
L60954 38103
" />
<path d="M60954 37946
L60797 38103
" />
<path d="M60797 38246
L60954 38403
" />
<path d="M60954 38246
L60797 38403
" />
<path d="M61545 25396
L61702 25553
" />
<path d="M61702 25396
L61545 25553
" />
<path d="M61545 25696
L61702 25853
" />
<path d="M61702 25696
L61545 25853
" />
<path d="M61921 32396
L62078 32553
" />
<path d="M62078 32396
L61921 32553
" />
<path d="M61921 33282
L62078 33439
" />
<path d="M62078 33282
L61921 33439
" />
<path d="M61921 44996
L62078 45153
" />
<path d="M62078 44996
L61921 45153
" />
<path d="M61921 45882
L62078 46039
" />
<path d="M62078 45882
L61921 46039
" />
<path d="M62296 41704
L62453 41861
" />
<path d="M62453 41704
L62296 41861
" />
<path d="M62321 29396
L62478 29553
" />
<path d="M62478 29396
L62321 29553
" />
<path d="M62571 41446
L62728 41603
" />
<path d="M62728 41446
L62571 41603
" />
<path d="M63221 22746
L63378 22903
" />
<path d="M63378 22746
L63221 22903
" />
<path d="M63221 35346
L63378 35503
" />
<path d="M63378 35346
L63221 35503
" />
<path d="M63221 47946
L63378 48103
" />
<path d="M63378 47946
L63221 48103
" />
<path d="M63621 18246
L63778 18403
" />
<path d="M63778 18246
L63621 18403
" />
<path d="M63621 30846
L63778 31003
" />
<path d="M63778 30846
L63621 31003
" />
<path d="M63621 43446
L63778 43603
" />
<path d="M63778 43446
L63621 43603
" />
<path d="M64271 16296
L64428 16453
" />
<path d="M64428 16296
L64271 16453
" />
<path d="M64571 22946
L64728 23103
" />
<path d="M64728 22946
L64571 23103
" />
<path d="M64621 48196
L64778 48353
" />
<path d="M64778 48196
L64621 48353
" />
<path d="M64721 35696
L64878 35853
" />
<path d="M64878 35696
L64721 35853
" />
<path d="M66821 16646
L66978 16803
" />
<path d="M66978 16646
L66821 16803
" />
<circle cx="44750" cy="38187.6" r="137.795" /> 
<circle cx="44750" cy="38875" r="137.795" /> 
<circle cx="44750" cy="39875" r="137.795" /> 
<circle cx="44750" cy="40562.4" r="137.795" /> 
<circle cx="44800" cy="25637.6" r="137.795" /> 
<circle cx="44800" cy="26275" r="137.795" /> 
<circle cx="44800" cy="27275" r="137.795" /> 
<circle cx="44800" cy="27912.4" r="137.795" /> 
<circle cx="64900" cy="25637.6" r="137.795" /> 
<circle cx="64900" cy="26275" r="137.795" /> 
<circle cx="64900" cy="27175" r="137.795" /> 
<circle cx="64900" cy="27912.4" r="137.795" /> 
<circle cx="64950" cy="38187.6" r="137.795" /> 
<circle cx="64950" cy="38875" r="137.795" /> 
<circle cx="64950" cy="39875" r="137.795" /> 
<circle cx="64950" cy="40575" r="137.795" /> 
<path d="M43826 16822
L43826 17215
" />
<path d="M43629 17019
L44023 17019
" />
<path d="M43826 17822
L43826 18215
" />
<path d="M43629 18019
L44023 18019
" />
<path d="M43826 18822
L43826 19215
" />
<path d="M43629 19019
L44023 19019
" />
<path d="M43826 19822
L43826 20215
" />
<path d="M43629 20019
L44023 20019
" />
<path d="M43826 20822
L43826 21215
" />
<path d="M43629 21019
L44023 21019
" />
<path d="M43826 21822
L43826 22215
" />
<path d="M43629 22019
L44023 22019
" />
<path d="M43826 22822
L43826 23215
" />
<path d="M43629 23019
L44023 23019
" />
<path d="M43826 23822
L43826 24215
" />
<path d="M43629 24019
L44023 24019
" />
<path d="M43826 29422
L43826 29815
" />
<path d="M43629 29619
L44023 29619
" />
<path d="M43826 30422
L43826 30815
" />
<path d="M43629 30619
L44023 30619
" />
<path d="M43826 31422
L43826 31815
" />
<path d="M43629 31619
L44023 31619
" />
<path d="M43826 32422
L43826 32815
" />
<path d="M43629 32619
L44023 32619
" />
<path d="M43826 33422
L43826 33815
" />
<path d="M43629 33619
L44023 33619
" />
<path d="M43826 34422
L43826 34815
" />
<path d="M43629 34619
L44023 34619
" />
<path d="M43826 35422
L43826 35815
" />
<path d="M43629 35619
L44023 35619
" />
<path d="M43826 36422
L43826 36815
" />
<path d="M43629 36619
L44023 36619
" />
<path d="M43826 42022
L43826 42415
" />
<path d="M43629 42219
L44023 42219
" />
<path d="M43826 43022
L43826 43415
" />
<path d="M43629 43219
L44023 43219
" />
<path d="M43826 44022
L43826 44415
" />
<path d="M43629 44219
L44023 44219
" />
<path d="M43826 45022
L43826 45415
" />
<path d="M43629 45219
L44023 45219
" />
<path d="M43826 46022
L43826 46415
" />
<path d="M43629 46219
L44023 46219
" />
<path d="M43826 47022
L43826 47415
" />
<path d="M43629 47219
L44023 47219
" />
<path d="M43826 48022
L43826 48415
" />
<path d="M43629 48219
L44023 48219
" />
<path d="M43826 49022
L43826 49415
" />
<path d="M43629 49219
L44023 49219
" />
<path d="M53275 16822
L53275 17215
" />
<path d="M53078 17019
L53472 17019
" />
<path d="M53275 17822
L53275 18215
" />
<path d="M53078 18019
L53472 18019
" />
<path d="M53275 18822
L53275 19215
" />
<path d="M53078 19019
L53472 19019
" />
<path d="M53275 19822
L53275 20215
" />
<path d="M53078 20019
L53472 20019
" />
<path d="M53275 20822
L53275 21215
" />
<path d="M53078 21019
L53472 21019
" />
<path d="M53275 21822
L53275 22215
" />
<path d="M53078 22019
L53472 22019
" />
<path d="M53275 22822
L53275 23215
" />
<path d="M53078 23019
L53472 23019
" />
<path d="M53275 23822
L53275 24215
" />
<path d="M53078 24019
L53472 24019
" />
<path d="M53275 29422
L53275 29815
" />
<path d="M53078 29619
L53472 29619
" />
<path d="M53275 30422
L53275 30815
" />
<path d="M53078 30619
L53472 30619
" />
<path d="M53275 31422
L53275 31815
" />
<path d="M53078 31619
L53472 31619
" />
<path d="M53275 32422
L53275 32815
" />
<path d="M53078 32619
L53472 32619
" />
<path d="M53275 33422
L53275 33815
" />
<path d="M53078 33619
L53472 33619
" />
<path d="M53275 34422
L53275 34815
" />
<path d="M53078 34619
L53472 34619
" />
<path d="M53275 35422
L53275 35815
" />
<path d="M53078 35619
L53472 35619
" />
<path d="M53275 36422
L53275 36815
" />
<path d="M53078 36619
L53472 36619
" />
<path d="M53275 42022
L53275 42415
" />
<path d="M53078 42219
L53472 42219
" />
<path d="M53275 43022
L53275 43415
" />
<path d="M53078 43219
L53472 43219
" />
<path d="M53275 44022
L53275 44415
" />
<path d="M53078 44219
L53472 44219
" />
<path d="M53275 45022
L53275 45415
" />
<path d="M53078 45219
L53472 45219
" />
<path d="M53275 46022
L53275 46415
" />
<path d="M53078 46219
L53472 46219
" />
<path d="M53275 47022
L53275 47415
" />
<path d="M53078 47219
L53472 47219
" />
<path d="M53275 48022
L53275 48415
" />
<path d="M53078 48219
L53472 48219
" />
<path d="M53275 49022
L53275 49415
" />
<path d="M53078 49219
L53472 49219
" />
<path d="M56426 16822
L56426 17215
" />
<path d="M56229 17019
L56623 17019
" />
<path d="M56426 17822
L56426 18215
" />
<path d="M56229 18019
L56623 18019
" />
<path d="M56426 18822
L56426 19215
" />
<path d="M56229 19019
L56623 19019
" />
<path d="M56426 19822
L56426 20215
" />
<path d="M56229 20019
L56623 20019
" />
<path d="M56426 20822
L56426 21215
" />
<path d="M56229 21019
L56623 21019
" />
<path d="M56426 21822
L56426 22215
" />
<path d="M56229 22019
L56623 22019
" />
<path d="M56426 22822
L56426 23215
" />
<path d="M56229 23019
L56623 23019
" />
<path d="M56426 23822
L56426 24215
" />
<path d="M56229 24019
L56623 24019
" />
<path d="M56426 29422
L56426 29815
" />
<path d="M56229 29619
L56623 29619
" />
<path d="M56426 30422
L56426 30815
" />
<path d="M56229 30619
L56623 30619
" />
<path d="M56426 31422
L56426 31815
" />
<path d="M56229 31619
L56623 31619
" />
<path d="M56426 32422
L56426 32815
" />
<path d="M56229 32619
L56623 32619
" />
<path d="M56426 33422
L56426 33815
" />
<path d="M56229 33619
L56623 33619
" />
<path d="M56426 34422
L56426 34815
" />
<path d="M56229 34619
L56623 34619
" />
<path d="M56426 35422
L56426 35815
" />
<path d="M56229 35619
L56623 35619
" />
<path d="M56426 36422
L56426 36815
" />
<path d="M56229 36619
L56623 36619
" />
<path d="M56426 42022
L56426 42415
" />
<path d="M56229 42219
L56623 42219
" />
<path d="M56426 43022
L56426 43415
" />
<path d="M56229 43219
L56623 43219
" />
<path d="M56426 44022
L56426 44415
" />
<path d="M56229 44219
L56623 44219
" />
<path d="M56426 45022
L56426 45415
" />
<path d="M56229 45219
L56623 45219
" />
<path d="M56426 46022
L56426 46415
" />
<path d="M56229 46219
L56623 46219
" />
<path d="M56426 47022
L56426 47415
" />
<path d="M56229 47219
L56623 47219
" />
<path d="M56426 48022
L56426 48415
" />
<path d="M56229 48219
L56623 48219
" />
<path d="M56426 49022
L56426 49415
" />
<path d="M56229 49219
L56623 49219
" />
<path d="M65875 16822
L65875 17215
" />
<path d="M65678 17019
L66072 17019
" />
<path d="M65875 17822
L65875 18215
" />
<path d="M65678 18019
L66072 18019
" />
<path d="M65875 18822
L65875 19215
" />
<path d="M65678 19019
L66072 19019
" />
<path d="M65875 19822
L65875 20215
" />
<path d="M65678 20019
L66072 20019
" />
<path d="M65875 20822
L65875 21215
" />
<path d="M65678 21019
L66072 21019
" />
<path d="M65875 21822
L65875 22215
" />
<path d="M65678 22019
L66072 22019
" />
<path d="M65875 22822
L65875 23215
" />
<path d="M65678 23019
L66072 23019
" />
<path d="M65875 23822
L65875 24215
" />
<path d="M65678 24019
L66072 24019
" />
<path d="M65875 29422
L65875 29815
" />
<path d="M65678 29619
L66072 29619
" />
<path d="M65875 30422
L65875 30815
" />
<path d="M65678 30619
L66072 30619
" />
<path d="M65875 31422
L65875 31815
" />
<path d="M65678 31619
L66072 31619
" />
<path d="M65875 32422
L65875 32815
" />
<path d="M65678 32619
L66072 32619
" />
<path d="M65875 33422
L65875 33815
" />
<path d="M65678 33619
L66072 33619
" />
<path d="M65875 34422
L65875 34815
" />
<path d="M65678 34619
L66072 34619
" />
<path d="M65875 35422
L65875 35815
" />
<path d="M65678 35619
L66072 35619
" />
<path d="M65875 36422
L65875 36815
" />
<path d="M65678 36619
L66072 36619
" />
<path d="M65875 42022
L65875 42415
" />
<path d="M65678 42219
L66072 42219
" />
<path d="M65875 43022
L65875 43415
" />
<path d="M65678 43219
L66072 43219
" />
<path d="M65875 44022
L65875 44415
" />
<path d="M65678 44219
L66072 44219
" />
<path d="M65875 45022
L65875 45415
" />
<path d="M65678 45219
L66072 45219
" />
<path d="M65875 46022
L65875 46415
" />
<path d="M65678 46219
L66072 46219
" />
<path d="M65875 47022
L65875 47415
" />
<path d="M65678 47219
L66072 47219
" />
<path d="M65875 48022
L65875 48415
" />
<path d="M65678 48219
L66072 48219
" />
<path d="M65875 49022
L65875 49415
" />
<path d="M65678 49219
L66072 49219
" />
<polyline fill="none;"
points="47341,15066
47341,14783
47058,14783
47058,15066
47341,15066
" /> 
<polyline fill="none;"
points="47341,49816
47341,49533
47058,49533
47058,49816
47341,49816
" /> 
<polyline fill="none;"
points="48341,15066
48341,14783
48058,14783
48058,15066
48341,15066
" /> 
<polyline fill="none;"
points="48341,49816
48341,49533
48058,49533
48058,49816
48341,49816
" /> 
<polyline fill="none;"
points="49341,15066
49341,14783
49058,14783
49058,15066
49341,15066
" /> 
<polyline fill="none;"
points="49341,49816
49341,49533
49058,49533
49058,49816
49341,49816
" /> 
<polyline fill="none;"
points="50341,15066
50341,14783
50058,14783
50058,15066
50341,15066
" /> 
<polyline fill="none;"
points="50341,49816
50341,49533
50058,49533
50058,49816
50341,49816
" /> 
<polyline fill="none;"
points="59891,15066
59891,14783
59608,14783
59608,15066
59891,15066
" /> 
<polyline fill="none;"
points="59891,49816
59891,49533
59608,49533
59608,49816
59891,49816
" /> 
<polyline fill="none;"
points="60891,15066
60891,14783
60608,14783
60608,15066
60891,15066
" /> 
<polyline fill="none;"
points="60891,49816
60891,49533
60608,49533
60608,49816
60891,49816
" /> 
<polyline fill="none;"
points="61891,15066
61891,14783
61608,14783
61608,15066
61891,15066
" /> 
<polyline fill="none;"
points="61891,49816
61891,49533
61608,49533
61608,49816
61891,49816
" /> 
<polyline fill="none;"
points="62891,15066
62891,14783
62608,14783
62608,15066
62891,15066
" /> 
<polyline fill="none;"
points="62891,49816
62891,49533
62608,49533
62608,49816
62891,49816
" /> 
</g>
<g style="fill:#000000; fill-opacity:0.0; 
stroke:#000000; stroke-width:118.11; stroke-opacity:1; 
stroke-linecap:round; stroke-linejoin:round;">
<path d="M43289 53838
L43289 52656
L43570 52656
L43739 52713
L43851 52825
L43907 52938
L43964 53163
L43964 53331
L43907 53556
L43851 53669
L43739 53781
L43570 53838
L43289 53838
" />
<path d="M44470 53838
L44470 53050
" />
<path d="M44470 53275
L44526 53163
L44582 53106
L44695 53050
L44807 53050
" />
<path d="M45201 53838
L45201 53050
" />
<path d="M45201 52656
L45145 52713
L45201 52769
L45257 52713
L45201 52656
L45201 52769
" />
<path d="M45932 53838
L45820 53781
L45763 53669
L45763 52656
" />
<path d="M46551 53838
L46438 53781
L46382 53669
L46382 52656
" />
<path d="M47901 53838
L47901 52656
L48294 53500
L48688 52656
L48688 53838
" />
<path d="M49757 53838
L49757 53219
L49700 53106
L49588 53050
L49363 53050
L49250 53106
" />
<path d="M49757 53781
L49644 53838
L49363 53838
L49250 53781
L49194 53669
L49194 53556
L49250 53444
L49363 53388
L49644 53388
L49757 53331
" />
<path d="M50319 53050
L50319 54231
" />
<path d="M50319 53106
L50431 53050
L50656 53050
L50769 53106
L50825 53163
L50881 53275
L50881 53613
L50825 53725
L50769 53781
L50656 53838
L50431 53838
L50319 53781
" />
<path d="M51388 53725
L51444 53781
L51388 53838
L51331 53781
L51388 53725
L51388 53838
" />
<path d="M51388 53106
L51444 53163
L51388 53219
L51331 53163
L51388 53106
L51388 53219
" />
<path d="M42062 55705
L42220 55862
" />
<path d="M42220 55705
L42062 55862
" />
<path d="M43514 55137
L43626 55137
L43739 55193
L43795 55249
L43851 55362
L43907 55587
L43907 55868
L43851 56093
L43795 56205
L43739 56262
L43626 56318
L43514 56318
L43401 56262
L43345 56205
L43289 56093
L43232 55868
L43232 55587
L43289 55362
L43345 55249
L43401 55193
L43514 55137
" />
<path d="M44413 56205
L44470 56262
L44413 56318
L44357 56262
L44413 56205
L44413 56318
" />
<path d="M45482 55530
L45482 56318
" />
<path d="M45201 55081
L44920 55924
L45651 55924
" />
<path d="M46326 55137
L46438 55137
L46551 55193
L46607 55249
L46663 55362
L46719 55587
L46719 55868
L46663 56093
L46607 56205
L46551 56262
L46438 56318
L46326 56318
L46213 56262
L46157 56205
L46101 56093
L46044 55868
L46044 55587
L46101 55362
L46157 55249
L46213 55193
L46326 55137
" />
<path d="M47226 56318
L47226 55530
" />
<path d="M47226 55643
L47282 55587
L47394 55530
L47563 55530
L47676 55587
L47732 55699
L47732 56318
" />
<path d="M47732 55699
L47788 55587
L47901 55530
L48069 55530
L48182 55587
L48238 55699
L48238 56318
" />
<path d="M48800 56318
L48800 55530
" />
<path d="M48800 55643
L48857 55587
L48969 55530
L49138 55530
L49250 55587
L49307 55699
L49307 56318
" />
<path d="M49307 55699
L49363 55587
L49475 55530
L49644 55530
L49757 55587
L49813 55699
L49813 56318
" />
<path d="M52119 55081
L51106 56599
" />
<path d="M53637 55137
L53750 55137
L53862 55193
L53919 55249
L53975 55362
L54031 55587
L54031 55868
L53975 56093
L53919 56205
L53862 56262
L53750 56318
L53637 56318
L53525 56262
L53469 56205
L53412 56093
L53356 55868
L53356 55587
L53412 55362
L53469 55249
L53525 55193
L53637 55137
" />
<path d="M54537 56205
L54593 56262
L54537 56318
L54481 56262
L54537 56205
L54537 56318
" />
<path d="M55325 55137
L55437 55137
L55550 55193
L55606 55249
L55662 55362
L55718 55587
L55718 55868
L55662 56093
L55606 56205
L55550 56262
L55437 56318
L55325 56318
L55212 56262
L55156 56205
L55100 56093
L55043 55868
L55043 55587
L55100 55362
L55156 55249
L55212 55193
L55325 55137
" />
<path d="M56843 56318
L56168 56318
" />
<path d="M56506 56318
L56506 55137
L56393 55305
L56281 55418
L56168 55474
" />
<path d="M57856 55137
L57631 55137
L57518 55193
L57462 55249
L57349 55418
L57293 55643
L57293 56093
L57349 56205
L57406 56262
L57518 56318
L57743 56318
L57856 56262
L57912 56205
L57968 56093
L57968 55812
L57912 55699
L57856 55643
L57743 55587
L57518 55587
L57406 55643
L57349 55699
L57293 55812
" />
<path d="M58418 55137
L58418 55362
" />
<path d="M58868 55137
L58868 55362
" />
<path d="M60611 56768
L60555 56712
L60443 56543
L60386 56430
L60330 56262
L60274 55980
L60274 55755
L60330 55474
L60386 55305
L60443 55193
L60555 55024
L60611 54968
" />
<path d="M61118 56318
L61343 56318
L61455 56262
L61511 56205
L61624 56037
L61680 55812
L61680 55362
L61624 55249
L61568 55193
L61455 55137
L61230 55137
L61118 55193
L61061 55249
L61005 55362
L61005 55643
L61061 55755
L61118 55812
L61230 55868
L61455 55868
L61568 55812
L61624 55755
L61680 55643
" />
<path d="M62692 55530
L62692 56318
" />
<path d="M62411 55081
L62130 55924
L62861 55924
" />
<path d="M64211 56318
L64211 55137
" />
<path d="M64717 56318
L64717 55699
L64661 55587
L64548 55530
L64380 55530
L64267 55587
L64211 55643
" />
<path d="M65448 56318
L65336 56262
L65280 56205
L65223 56093
L65223 55755
L65280 55643
L65336 55587
L65448 55530
L65617 55530
L65730 55587
L65786 55643
L65842 55755
L65842 56093
L65786 56205
L65730 56262
L65617 56318
L65448 56318
" />
<path d="M66517 56318
L66404 56262
L66348 56149
L66348 55137
" />
<path d="M67417 56262
L67304 56318
L67079 56318
L66967 56262
L66911 56149
L66911 55699
L66967 55587
L67079 55530
L67304 55530
L67417 55587
L67473 55699
L67473 55812
L66911 55924
" />
<path d="M67923 56262
L68035 56318
L68260 56318
L68373 56262
L68429 56149
L68429 56093
L68373 55980
L68260 55924
L68092 55924
L67979 55868
L67923 55755
L67923 55699
L67979 55587
L68092 55530
L68260 55530
L68373 55587
" />
<path d="M68823 56768
L68879 56712
L68992 56543
L69048 56430
L69104 56262
L69160 55980
L69160 55755
L69104 55474
L69048 55305
L68992 55193
L68879 55024
L68823 54968
" />
<circle cx="42082.7" cy="57343.1" r="137.795" /> 
<path d="M43514 56696
L43626 56696
L43739 56752
L43795 56808
L43851 56921
L43907 57146
L43907 57427
L43851 57652
L43795 57764
L43739 57821
L43626 57877
L43514 57877
L43401 57821
L43345 57764
L43289 57652
L43232 57427
L43232 57146
L43289 56921
L43345 56808
L43401 56752
L43514 56696
" />
<path d="M44413 57764
L44470 57821
L44413 57877
L44357 57821
L44413 57764
L44413 57877
" />
<path d="M44863 56696
L45651 56696
L45145 57877
" />
<path d="M46326 56696
L46438 56696
L46551 56752
L46607 56808
L46663 56921
L46719 57146
L46719 57427
L46663 57652
L46607 57764
L46551 57821
L46438 57877
L46326 57877
L46213 57821
L46157 57764
L46101 57652
L46044 57427
L46044 57146
L46101 56921
L46157 56808
L46213 56752
L46326 56696
" />
<path d="M47226 57877
L47226 57090
" />
<path d="M47226 57202
L47282 57146
L47394 57090
L47563 57090
L47676 57146
L47732 57258
L47732 57877
" />
<path d="M47732 57258
L47788 57146
L47901 57090
L48069 57090
L48182 57146
L48238 57258
L48238 57877
" />
<path d="M48800 57877
L48800 57090
" />
<path d="M48800 57202
L48857 57146
L48969 57090
L49138 57090
L49250 57146
L49307 57258
L49307 57877
" />
<path d="M49307 57258
L49363 57146
L49475 57090
L49644 57090
L49757 57146
L49813 57258
L49813 57877
" />
<path d="M52119 56640
L51106 58158
" />
<path d="M53637 56696
L53750 56696
L53862 56752
L53919 56808
L53975 56921
L54031 57146
L54031 57427
L53975 57652
L53919 57764
L53862 57821
L53750 57877
L53637 57877
L53525 57821
L53469 57764
L53412 57652
L53356 57427
L53356 57146
L53412 56921
L53469 56808
L53525 56752
L53637 56696
" />
<path d="M54537 57764
L54593 57821
L54537 57877
L54481 57821
L54537 57764
L54537 57877
" />
<path d="M55325 56696
L55437 56696
L55550 56752
L55606 56808
L55662 56921
L55718 57146
L55718 57427
L55662 57652
L55606 57764
L55550 57821
L55437 57877
L55325 57877
L55212 57821
L55156 57764
L55100 57652
L55043 57427
L55043 57146
L55100 56921
L55156 56808
L55212 56752
L55325 56696
" />
<path d="M56168 56808
L56224 56752
L56337 56696
L56618 56696
L56731 56752
L56787 56808
L56843 56921
L56843 57033
L56787 57202
L56112 57877
L56843 57877
" />
<path d="M57518 57202
L57406 57146
L57349 57090
L57293 56977
L57293 56921
L57349 56808
L57406 56752
L57518 56696
L57743 56696
L57856 56752
L57912 56808
L57968 56921
L57968 56977
L57912 57090
L57856 57146
L57743 57202
L57518 57202
L57406 57258
L57349 57314
L57293 57427
L57293 57652
L57349 57764
L57406 57821
L57518 57877
L57743 57877
L57856 57821
L57912 57764
L57968 57652
L57968 57427
L57912 57314
L57856 57258
L57743 57202
" />
<path d="M58418 56696
L58418 56921
" />
<path d="M58868 56696
L58868 56921
" />
<path d="M60611 58327
L60555 58271
L60443 58102
L60386 57989
L60330 57821
L60274 57539
L60274 57314
L60330 57033
L60386 56865
L60443 56752
L60555 56583
L60611 56527
" />
<path d="M61680 57877
L61005 57877
" />
<path d="M61343 57877
L61343 56696
L61230 56865
L61118 56977
L61005 57033
" />
<path d="M62692 56696
L62467 56696
L62355 56752
L62299 56808
L62186 56977
L62130 57202
L62130 57652
L62186 57764
L62242 57821
L62355 57877
L62580 57877
L62692 57821
L62749 57764
L62805 57652
L62805 57371
L62749 57258
L62692 57202
L62580 57146
L62355 57146
L62242 57202
L62186 57258
L62130 57371
" />
<path d="M64211 57877
L64211 56696
" />
<path d="M64717 57877
L64717 57258
L64661 57146
L64548 57090
L64380 57090
L64267 57146
L64211 57202
" />
<path d="M65448 57877
L65336 57821
L65280 57764
L65223 57652
L65223 57314
L65280 57202
L65336 57146
L65448 57090
L65617 57090
L65730 57146
L65786 57202
L65842 57314
L65842 57652
L65786 57764
L65730 57821
L65617 57877
L65448 57877
" />
<path d="M66517 57877
L66404 57821
L66348 57708
L66348 56696
" />
<path d="M67417 57821
L67304 57877
L67079 57877
L66967 57821
L66911 57708
L66911 57258
L66967 57146
L67079 57090
L67304 57090
L67417 57146
L67473 57258
L67473 57371
L66911 57483
" />
<path d="M67923 57821
L68035 57877
L68260 57877
L68373 57821
L68429 57708
L68429 57652
L68373 57539
L68260 57483
L68092 57483
L67979 57427
L67923 57314
L67923 57258
L67979 57146
L68092 57090
L68260 57090
L68373 57146
" />
<path d="M68823 58327
L68879 58271
L68992 58102
L69048 57989
L69104 57821
L69160 57539
L69160 57314
L69104 57033
L69048 56865
L68992 56752
L68879 56583
L68823 56527
" />
<path d="M42023 58705
L42023 59099
" />
<path d="M41826 58902
L42220 58902
" />
<path d="M43907 59436
L43232 59436
" />
<path d="M43570 59436
L43570 58255
L43457 58424
L43345 58536
L43232 58592
" />
<path d="M44413 59323
L44470 59380
L44413 59436
L44357 59380
L44413 59323
L44413 59436
" />
<path d="M45201 58255
L45313 58255
L45426 58311
L45482 58367
L45538 58480
L45595 58705
L45595 58986
L45538 59211
L45482 59323
L45426 59380
L45313 59436
L45201 59436
L45088 59380
L45032 59323
L44976 59211
L44920 58986
L44920 58705
L44976 58480
L45032 58367
L45088 58311
L45201 58255
" />
<path d="M46326 58255
L46438 58255
L46551 58311
L46607 58367
L46663 58480
L46719 58705
L46719 58986
L46663 59211
L46607 59323
L46551 59380
L46438 59436
L46326 59436
L46213 59380
L46157 59323
L46101 59211
L46044 58986
L46044 58705
L46101 58480
L46157 58367
L46213 58311
L46326 58255
" />
<path d="M47226 59436
L47226 58649
" />
<path d="M47226 58761
L47282 58705
L47394 58649
L47563 58649
L47676 58705
L47732 58817
L47732 59436
" />
<path d="M47732 58817
L47788 58705
L47901 58649
L48069 58649
L48182 58705
L48238 58817
L48238 59436
" />
<path d="M48800 59436
L48800 58649
" />
<path d="M48800 58761
L48857 58705
L48969 58649
L49138 58649
L49250 58705
L49307 58817
L49307 59436
" />
<path d="M49307 58817
L49363 58705
L49475 58649
L49644 58649
L49757 58705
L49813 58817
L49813 59436
" />
<path d="M52119 58199
L51106 59717
" />
<path d="M53637 58255
L53750 58255
L53862 58311
L53919 58367
L53975 58480
L54031 58705
L54031 58986
L53975 59211
L53919 59323
L53862 59380
L53750 59436
L53637 59436
L53525 59380
L53469 59323
L53412 59211
L53356 58986
L53356 58705
L53412 58480
L53469 58367
L53525 58311
L53637 58255
" />
<path d="M54537 59323
L54593 59380
L54537 59436
L54481 59380
L54537 59323
L54537 59436
" />
<path d="M55325 58255
L55437 58255
L55550 58311
L55606 58367
L55662 58480
L55718 58705
L55718 58986
L55662 59211
L55606 59323
L55550 59380
L55437 59436
L55325 59436
L55212 59380
L55156 59323
L55100 59211
L55043 58986
L55043 58705
L55100 58480
L55156 58367
L55212 58311
L55325 58255
" />
<path d="M56112 58255
L56843 58255
L56449 58705
L56618 58705
L56731 58761
L56787 58817
L56843 58930
L56843 59211
L56787 59323
L56731 59380
L56618 59436
L56281 59436
L56168 59380
L56112 59323
" />
<path d="M57406 59436
L57631 59436
L57743 59380
L57799 59323
L57912 59155
L57968 58930
L57968 58480
L57912 58367
L57856 58311
L57743 58255
L57518 58255
L57406 58311
L57349 58367
L57293 58480
L57293 58761
L57349 58874
L57406 58930
L57518 58986
L57743 58986
L57856 58930
L57912 58874
L57968 58761
" />
<path d="M58418 58255
L58418 58480
" />
<path d="M58868 58255
L58868 58480
" />
<path d="M60611 59886
L60555 59830
L60443 59661
L60386 59548
L60330 59380
L60274 59099
L60274 58874
L60330 58592
L60386 58424
L60443 58311
L60555 58142
L60611 58086
" />
<path d="M61118 59436
L61343 59436
L61455 59380
L61511 59323
L61624 59155
L61680 58930
L61680 58480
L61624 58367
L61568 58311
L61455 58255
L61230 58255
L61118 58311
L61061 58367
L61005 58480
L61005 58761
L61061 58874
L61118 58930
L61230 58986
L61455 58986
L61568 58930
L61624 58874
L61680 58761
" />
<path d="M62692 58255
L62467 58255
L62355 58311
L62299 58367
L62186 58536
L62130 58761
L62130 59211
L62186 59323
L62242 59380
L62355 59436
L62580 59436
L62692 59380
L62749 59323
L62805 59211
L62805 58930
L62749 58817
L62692 58761
L62580 58705
L62355 58705
L62242 58761
L62186 58817
L62130 58930
" />
<path d="M64211 59436
L64211 58255
" />
<path d="M64717 59436
L64717 58817
L64661 58705
L64548 58649
L64380 58649
L64267 58705
L64211 58761
" />
<path d="M65448 59436
L65336 59380
L65280 59323
L65223 59211
L65223 58874
L65280 58761
L65336 58705
L65448 58649
L65617 58649
L65730 58705
L65786 58761
L65842 58874
L65842 59211
L65786 59323
L65730 59380
L65617 59436
L65448 59436
" />
<path d="M66517 59436
L66404 59380
L66348 59267
L66348 58255
" />
<path d="M67417 59380
L67304 59436
L67079 59436
L66967 59380
L66911 59267
L66911 58817
L66967 58705
L67079 58649
L67304 58649
L67417 58705
L67473 58817
L67473 58930
L66911 59042
" />
<path d="M67923 59380
L68035 59436
L68260 59436
L68373 59380
L68429 59267
L68429 59211
L68373 59099
L68260 59042
L68092 59042
L67979 58986
L67923 58874
L67923 58817
L67979 58705
L68092 58649
L68260 58649
L68373 58705
" />
<path d="M68823 59886
L68879 59830
L68992 59661
L69048 59548
L69104 59380
L69160 59099
L69160 58874
L69104 58592
L69048 58424
L68992 58311
L68879 58142
L68823 58086
" />
<polyline fill="none;"
points="42161,60602
42161,60319
41879,60319
41879,60602
42161,60602
" /> 
<path d="M43907 60995
L43232 60995
" />
<path d="M43570 60995
L43570 59814
L43457 59983
L43345 60095
L43232 60151
" />
<path d="M44413 60883
L44470 60939
L44413 60995
L44357 60939
L44413 60883
L44413 60995
" />
<path d="M45201 59814
L45313 59814
L45426 59870
L45482 59926
L45538 60039
L45595 60264
L45595 60545
L45538 60770
L45482 60883
L45426 60939
L45313 60995
L45201 60995
L45088 60939
L45032 60883
L44976 60770
L44920 60545
L44920 60264
L44976 60039
L45032 59926
L45088 59870
L45201 59814
" />
<path d="M46044 59926
L46101 59870
L46213 59814
L46494 59814
L46607 59870
L46663 59926
L46719 60039
L46719 60151
L46663 60320
L45988 60995
L46719 60995
" />
<path d="M47226 60995
L47226 60208
" />
<path d="M47226 60320
L47282 60264
L47394 60208
L47563 60208
L47676 60264
L47732 60376
L47732 60995
" />
<path d="M47732 60376
L47788 60264
L47901 60208
L48069 60208
L48182 60264
L48238 60376
L48238 60995
" />
<path d="M48800 60995
L48800 60208
" />
<path d="M48800 60320
L48857 60264
L48969 60208
L49138 60208
L49250 60264
L49307 60376
L49307 60995
" />
<path d="M49307 60376
L49363 60264
L49475 60208
L49644 60208
L49757 60264
L49813 60376
L49813 60995
" />
<path d="M52119 59758
L51106 61276
" />
<path d="M53637 59814
L53750 59814
L53862 59870
L53919 59926
L53975 60039
L54031 60264
L54031 60545
L53975 60770
L53919 60883
L53862 60939
L53750 60995
L53637 60995
L53525 60939
L53469 60883
L53412 60770
L53356 60545
L53356 60264
L53412 60039
L53469 59926
L53525 59870
L53637 59814
" />
<path d="M54537 60883
L54593 60939
L54537 60995
L54481 60939
L54537 60883
L54537 60995
" />
<path d="M55325 59814
L55437 59814
L55550 59870
L55606 59926
L55662 60039
L55718 60264
L55718 60545
L55662 60770
L55606 60883
L55550 60939
L55437 60995
L55325 60995
L55212 60939
L55156 60883
L55100 60770
L55043 60545
L55043 60264
L55100 60039
L55156 59926
L55212 59870
L55325 59814
" />
<path d="M56731 60208
L56731 60995
" />
<path d="M56449 59758
L56168 60601
L56899 60601
" />
<path d="M57574 59814
L57687 59814
L57799 59870
L57856 59926
L57912 60039
L57968 60264
L57968 60545
L57912 60770
L57856 60883
L57799 60939
L57687 60995
L57574 60995
L57462 60939
L57406 60883
L57349 60770
L57293 60545
L57293 60264
L57349 60039
L57406 59926
L57462 59870
L57574 59814
" />
<path d="M58418 59814
L58418 60039
" />
<path d="M58868 59814
L58868 60039
" />
<path d="M60611 61445
L60555 61389
L60443 61220
L60386 61108
L60330 60939
L60274 60658
L60274 60433
L60330 60151
L60386 59983
L60443 59870
L60555 59701
L60611 59645
" />
<path d="M61680 60995
L61005 60995
" />
<path d="M61343 60995
L61343 59814
L61230 59983
L61118 60095
L61005 60151
" />
<path d="M62692 59814
L62467 59814
L62355 59870
L62299 59926
L62186 60095
L62130 60320
L62130 60770
L62186 60883
L62242 60939
L62355 60995
L62580 60995
L62692 60939
L62749 60883
L62805 60770
L62805 60489
L62749 60376
L62692 60320
L62580 60264
L62355 60264
L62242 60320
L62186 60376
L62130 60489
" />
<path d="M64211 60995
L64211 59814
" />
<path d="M64717 60995
L64717 60376
L64661 60264
L64548 60208
L64380 60208
L64267 60264
L64211 60320
" />
<path d="M65448 60995
L65336 60939
L65280 60883
L65223 60770
L65223 60433
L65280 60320
L65336 60264
L65448 60208
L65617 60208
L65730 60264
L65786 60320
L65842 60433
L65842 60770
L65786 60883
L65730 60939
L65617 60995
L65448 60995
" />
<path d="M66517 60995
L66404 60939
L66348 60826
L66348 59814
" />
<path d="M67417 60939
L67304 60995
L67079 60995
L66967 60939
L66911 60826
L66911 60376
L66967 60264
L67079 60208
L67304 60208
L67417 60264
L67473 60376
L67473 60489
L66911 60601
" />
<path d="M67923 60939
L68035 60995
L68260 60995
L68373 60939
L68429 60826
L68429 60770
L68373 60658
L68260 60601
L68092 60601
L67979 60545
L67923 60433
L67923 60376
L67979 60264
L68092 60208
L68260 60208
L68373 60264
" />
<path d="M68823 61445
L68879 61389
L68992 61220
L69048 61108
L69104 60939
L69160 60658
L69160 60433
L69104 60151
L69048 59983
L68992 59870
L68879 59701
L68823 59645
" />
</g> 
</svg>
