G04 #@! TF.FileFunction,Copper,L1,Top,Signal*
%FSLAX46Y46*%
G04 Gerber Fmt 4.6, Leading zero omitted, Abs format (unit mm)*
G04 Created by KiCad (PCBNEW 4.0.2-1.fc23-product) date pon, 8 sie 2016, 18:36:25*
%MOMM*%
G01*
G04 APERTURE LIST*
%ADD10C,0.100000*%
%ADD11C,1.800000*%
%ADD12R,4.000000X1.524000*%
%ADD13R,1.727200X2.032000*%
%ADD14O,1.727200X2.032000*%
%ADD15R,1.524000X0.762000*%
%ADD16R,1.200000X0.750000*%
%ADD17R,0.900000X1.200000*%
%ADD18C,1.200000*%
%ADD19C,0.600000*%
%ADD20C,1.270000*%
%ADD21C,0.508000*%
%ADD22C,0.304800*%
%ADD23C,0.609600*%
%ADD24C,0.812800*%
G04 APERTURE END LIST*
D10*
D11*
X111319000Y-93012500D03*
X111319000Y-90472500D03*
X111319000Y-87932500D03*
X111319000Y-85392500D03*
X111319000Y-82852500D03*
X111319000Y-80312500D03*
X111319000Y-77772500D03*
X111319000Y-75232500D03*
X135319000Y-93012500D03*
X135319000Y-90472500D03*
X135319000Y-87932500D03*
X135319000Y-85392500D03*
X135319000Y-82852500D03*
X135319000Y-80312500D03*
X135319000Y-77772500D03*
X135319000Y-75232500D03*
X111319000Y-125016500D03*
X111319000Y-122476500D03*
X111319000Y-119936500D03*
X111319000Y-117396500D03*
X111319000Y-114856500D03*
X111319000Y-112316500D03*
X111319000Y-109776500D03*
X111319000Y-107236500D03*
X135319000Y-125016500D03*
X135319000Y-122476500D03*
X135319000Y-119936500D03*
X135319000Y-117396500D03*
X135319000Y-114856500D03*
X135319000Y-112316500D03*
X135319000Y-109776500D03*
X135319000Y-107236500D03*
X143323000Y-93012500D03*
X143323000Y-90472500D03*
X143323000Y-87932500D03*
X143323000Y-85392500D03*
X143323000Y-82852500D03*
X143323000Y-80312500D03*
X143323000Y-77772500D03*
X143323000Y-75232500D03*
X167323000Y-93012500D03*
X167323000Y-90472500D03*
X167323000Y-87932500D03*
X167323000Y-85392500D03*
X167323000Y-82852500D03*
X167323000Y-80312500D03*
X167323000Y-77772500D03*
X167323000Y-75232500D03*
X143323000Y-61008500D03*
X143323000Y-58468500D03*
X143323000Y-55928500D03*
X143323000Y-53388500D03*
X143323000Y-50848500D03*
X143323000Y-48308500D03*
X143323000Y-45768500D03*
X143323000Y-43228500D03*
X167323000Y-61008500D03*
X167323000Y-58468500D03*
X167323000Y-55928500D03*
X167323000Y-53388500D03*
X167323000Y-50848500D03*
X167323000Y-48308500D03*
X167323000Y-45768500D03*
X167323000Y-43228500D03*
X143323000Y-125016500D03*
X143323000Y-122476500D03*
X143323000Y-119936500D03*
X143323000Y-117396500D03*
X143323000Y-114856500D03*
X143323000Y-112316500D03*
X143323000Y-109776500D03*
X143323000Y-107236500D03*
X167323000Y-125016500D03*
X167323000Y-122476500D03*
X167323000Y-119936500D03*
X167323000Y-117396500D03*
X167323000Y-114856500D03*
X167323000Y-112316500D03*
X167323000Y-109776500D03*
X167323000Y-107236500D03*
D12*
X169037000Y-103822500D03*
X169037000Y-101282500D03*
X169037000Y-98742500D03*
X169037000Y-96202500D03*
X109601000Y-103822500D03*
X109601000Y-101282500D03*
X109601000Y-98742500D03*
X109601000Y-96202500D03*
X169037000Y-71818500D03*
X169037000Y-69278500D03*
X169037000Y-66738500D03*
X169037000Y-64198500D03*
X109601000Y-71818500D03*
X109601000Y-69278500D03*
X109601000Y-66738500D03*
X109601000Y-64198500D03*
D13*
X127508000Y-37909500D03*
D14*
X124968000Y-37909500D03*
X122428000Y-37909500D03*
X119888000Y-37909500D03*
D13*
X151765000Y-37909500D03*
D14*
X154305000Y-37909500D03*
X156845000Y-37909500D03*
X159385000Y-37909500D03*
D13*
X119888000Y-126174500D03*
D14*
X122428000Y-126174500D03*
X124968000Y-126174500D03*
X127508000Y-126174500D03*
D13*
X151765000Y-126174500D03*
D14*
X154305000Y-126174500D03*
X156845000Y-126174500D03*
X159385000Y-126174500D03*
D15*
X119761000Y-45275500D03*
X119761000Y-46545500D03*
X119761000Y-47815500D03*
X119761000Y-49085500D03*
X119761000Y-50355500D03*
X119761000Y-51625500D03*
X119761000Y-52895500D03*
X119761000Y-54165500D03*
X119761000Y-55435500D03*
X119761000Y-56705500D03*
X119761000Y-57975500D03*
X119761000Y-59372500D03*
X127381000Y-45275500D03*
X127381000Y-46545500D03*
X127381000Y-47815500D03*
X127381000Y-49085500D03*
X127381000Y-50355500D03*
X127381000Y-51625500D03*
X127381000Y-52895500D03*
X127381000Y-54165500D03*
X127381000Y-55435500D03*
X127381000Y-56705500D03*
X127381000Y-57975500D03*
X127381000Y-59245500D03*
X119761000Y-109283500D03*
X119761000Y-110553500D03*
X119761000Y-111823500D03*
X119761000Y-113093500D03*
X119761000Y-114363500D03*
X119761000Y-115633500D03*
X119761000Y-116903500D03*
X119761000Y-118173500D03*
X119761000Y-119443500D03*
X119761000Y-120713500D03*
X119761000Y-121983500D03*
X119761000Y-123380500D03*
X127381000Y-109283500D03*
X127381000Y-110553500D03*
X127381000Y-111823500D03*
X127381000Y-113093500D03*
X127381000Y-114363500D03*
X127381000Y-115633500D03*
X127381000Y-116903500D03*
X127381000Y-118173500D03*
X127381000Y-119443500D03*
X127381000Y-120713500D03*
X127381000Y-121983500D03*
X127381000Y-123253500D03*
X151765000Y-77279500D03*
X151765000Y-78549500D03*
X151765000Y-79819500D03*
X151765000Y-81089500D03*
X151765000Y-82359500D03*
X151765000Y-83629500D03*
X151765000Y-84899500D03*
X151765000Y-86169500D03*
X151765000Y-87439500D03*
X151765000Y-88709500D03*
X151765000Y-89979500D03*
X151765000Y-91376500D03*
X159385000Y-77279500D03*
X159385000Y-78549500D03*
X159385000Y-79819500D03*
X159385000Y-81089500D03*
X159385000Y-82359500D03*
X159385000Y-83629500D03*
X159385000Y-84899500D03*
X159385000Y-86169500D03*
X159385000Y-87439500D03*
X159385000Y-88709500D03*
X159385000Y-89979500D03*
X159385000Y-91249500D03*
X119761000Y-77279500D03*
X119761000Y-78549500D03*
X119761000Y-79819500D03*
X119761000Y-81089500D03*
X119761000Y-82359500D03*
X119761000Y-83629500D03*
X119761000Y-84899500D03*
X119761000Y-86169500D03*
X119761000Y-87439500D03*
X119761000Y-88709500D03*
X119761000Y-89979500D03*
X119761000Y-91376500D03*
X127381000Y-77279500D03*
X127381000Y-78549500D03*
X127381000Y-79819500D03*
X127381000Y-81089500D03*
X127381000Y-82359500D03*
X127381000Y-83629500D03*
X127381000Y-84899500D03*
X127381000Y-86169500D03*
X127381000Y-87439500D03*
X127381000Y-88709500D03*
X127381000Y-89979500D03*
X127381000Y-91249500D03*
X151765000Y-45275500D03*
X151765000Y-46545500D03*
X151765000Y-47815500D03*
X151765000Y-49085500D03*
X151765000Y-50355500D03*
X151765000Y-51625500D03*
X151765000Y-52895500D03*
X151765000Y-54165500D03*
X151765000Y-55435500D03*
X151765000Y-56705500D03*
X151765000Y-57975500D03*
X151765000Y-59372500D03*
X159385000Y-45275500D03*
X159385000Y-46545500D03*
X159385000Y-47815500D03*
X159385000Y-49085500D03*
X159385000Y-50355500D03*
X159385000Y-51625500D03*
X159385000Y-52895500D03*
X159385000Y-54165500D03*
X159385000Y-55435500D03*
X159385000Y-56705500D03*
X159385000Y-57975500D03*
X159385000Y-59245500D03*
X151765000Y-109283500D03*
X151765000Y-110553500D03*
X151765000Y-111823500D03*
X151765000Y-113093500D03*
X151765000Y-114363500D03*
X151765000Y-115633500D03*
X151765000Y-116903500D03*
X151765000Y-118173500D03*
X151765000Y-119443500D03*
X151765000Y-120713500D03*
X151765000Y-121983500D03*
X151765000Y-123380500D03*
X159385000Y-109283500D03*
X159385000Y-110553500D03*
X159385000Y-111823500D03*
X159385000Y-113093500D03*
X159385000Y-114363500D03*
X159385000Y-115633500D03*
X159385000Y-116903500D03*
X159385000Y-118173500D03*
X159385000Y-119443500D03*
X159385000Y-120713500D03*
X159385000Y-121983500D03*
X159385000Y-123253500D03*
D12*
X109601000Y-40068500D03*
X109601000Y-37528500D03*
X169037000Y-40068500D03*
X169037000Y-37528500D03*
X109601000Y-130746500D03*
X109601000Y-128206500D03*
X169037000Y-130746500D03*
X169037000Y-128206500D03*
D16*
X124521000Y-61912500D03*
X122621000Y-61912500D03*
X124521000Y-93916500D03*
X122621000Y-93916500D03*
X124521000Y-106616500D03*
X122621000Y-106616500D03*
X156525000Y-61912500D03*
X154625000Y-61912500D03*
X156525000Y-93916500D03*
X154625000Y-93916500D03*
X156525000Y-106616500D03*
X154625000Y-106616500D03*
D17*
X131191000Y-50652500D03*
X131191000Y-52852500D03*
X131191000Y-114660500D03*
X131191000Y-116860500D03*
X163195000Y-82529500D03*
X163195000Y-84729500D03*
X131191000Y-82656500D03*
X131191000Y-84856500D03*
X163195000Y-50779500D03*
X163195000Y-52979500D03*
X163195000Y-114660500D03*
X163195000Y-116860500D03*
D11*
X111319000Y-61008500D03*
X111319000Y-58468500D03*
X111319000Y-55928500D03*
X111319000Y-53388500D03*
X111319000Y-50848500D03*
X111319000Y-48308500D03*
X111319000Y-45768500D03*
X111319000Y-43228500D03*
X135319000Y-61008500D03*
X135319000Y-58468500D03*
X135319000Y-55928500D03*
X135319000Y-53388500D03*
X135319000Y-50848500D03*
X135319000Y-48308500D03*
X135319000Y-45768500D03*
X135319000Y-43228500D03*
D18*
X164846000Y-70897500D03*
X164846000Y-69024500D03*
X164846000Y-66738500D03*
X113792000Y-70897500D03*
X113792000Y-69278500D03*
X113792000Y-66738500D03*
D19*
X156525000Y-65468500D03*
X156525000Y-64706500D03*
X124521000Y-65468500D03*
X124521000Y-64706500D03*
D18*
X164846000Y-65119500D03*
X113792000Y-65119500D03*
X164973000Y-103060500D03*
X164973000Y-101282500D03*
X164973000Y-98742500D03*
X113665000Y-103028500D03*
X113665000Y-101282500D03*
X113665000Y-98742500D03*
D19*
X122621000Y-97345500D03*
X122621000Y-96583500D03*
X154625000Y-97345500D03*
X154625000Y-96583500D03*
D18*
X164973000Y-96996500D03*
X113665000Y-96996500D03*
D19*
X116586000Y-49085500D03*
X116586000Y-45656500D03*
X131826000Y-58610500D03*
X129540000Y-46545500D03*
X128778000Y-57975500D03*
X117729000Y-59372500D03*
X117856000Y-51625500D03*
X118110000Y-47815500D03*
X132588000Y-122999500D03*
X129794000Y-110553500D03*
X128778000Y-121983500D03*
X118237000Y-121983500D03*
X118110000Y-115633500D03*
X118110000Y-111823500D03*
X164592000Y-90868500D03*
X161798000Y-78549500D03*
X160782000Y-89979500D03*
X149987000Y-89979500D03*
X149987000Y-83629500D03*
X150241000Y-79819500D03*
X131953000Y-90614500D03*
X129667000Y-78549500D03*
X128905000Y-89979500D03*
X118237000Y-89979500D03*
X118237000Y-83629500D03*
X117983000Y-79819500D03*
X164211000Y-58483500D03*
X161798000Y-46545500D03*
X160782000Y-57975500D03*
X150114000Y-57975500D03*
X149987000Y-51625500D03*
X150114000Y-47815500D03*
X164338000Y-122618500D03*
X161798000Y-110553500D03*
X160782000Y-121983500D03*
X149987000Y-121983500D03*
X149987000Y-115633500D03*
X150241000Y-111823500D03*
X159131000Y-105473500D03*
X152654000Y-105473500D03*
X139319000Y-93027500D03*
X146939000Y-95059500D03*
X121666000Y-48069500D03*
X121666000Y-50609500D03*
X121666000Y-56959500D03*
X121666000Y-54483000D03*
X153670000Y-114490500D03*
X153670000Y-120332500D03*
X153670000Y-112072111D03*
X121666000Y-112077500D03*
X121666000Y-86677500D03*
X121666000Y-88201500D03*
X153670000Y-80327500D03*
X153670000Y-81846710D03*
X153670000Y-86682290D03*
X153670000Y-88196710D03*
X121666000Y-80332290D03*
X121666000Y-81851500D03*
X153670000Y-118681500D03*
X121666000Y-113855500D03*
X121666000Y-118681500D03*
X121666000Y-120332500D03*
X117602000Y-130746500D03*
X117602000Y-127063500D03*
X149606000Y-130746500D03*
X149606000Y-127063500D03*
X125603000Y-50609500D03*
X125603000Y-52705000D03*
X125603000Y-116713000D03*
X157480000Y-116740890D03*
X157480000Y-84736890D03*
X157480000Y-114490500D03*
X125603000Y-114236500D03*
X157480000Y-82486500D03*
X125603000Y-82872290D03*
X125603000Y-84386710D03*
X126258610Y-74718890D03*
X120650000Y-74718890D03*
X126365000Y-106595890D03*
X120396000Y-106595890D03*
X158496000Y-74866500D03*
X152654000Y-74866500D03*
X169926000Y-42481500D03*
X163449000Y-41592500D03*
X158432500Y-106129110D03*
X152654000Y-106595890D03*
D20*
X165100000Y-69278500D02*
X164846000Y-69024500D01*
X113792000Y-69278500D02*
X113792000Y-66738500D01*
D21*
X124521000Y-93916500D02*
X124521000Y-83629500D01*
X124521000Y-83629500D02*
X124521000Y-65468500D01*
X127381000Y-83629500D02*
X124521000Y-83629500D01*
X156525000Y-65468500D02*
X156525000Y-83502500D01*
X156525000Y-64706500D02*
X156525000Y-65468500D01*
X156525000Y-61912500D02*
X156525000Y-64706500D01*
X124521000Y-64706500D02*
X124521000Y-65468500D01*
X124521000Y-61912500D02*
X124521000Y-64706500D01*
D20*
X164846000Y-65119500D02*
X164846000Y-66738500D01*
X164846000Y-66738500D02*
X164846000Y-69024500D01*
X169037000Y-66738500D02*
X165767000Y-66738500D01*
X165767000Y-66738500D02*
X164846000Y-66738500D01*
X164846000Y-69024500D02*
X164846000Y-70897500D01*
X169037000Y-69278500D02*
X165100000Y-69278500D01*
X169037000Y-64198500D02*
X165767000Y-64198500D01*
X165767000Y-64198500D02*
X164846000Y-65119500D01*
X164846000Y-70897500D02*
X165767000Y-71818500D01*
X165767000Y-71818500D02*
X169037000Y-71818500D01*
X113792000Y-70897500D02*
X113792000Y-69278500D01*
X112871000Y-69278500D02*
X113792000Y-69278500D01*
X109601000Y-69278500D02*
X112871000Y-69278500D01*
X113792000Y-66738500D02*
X113792000Y-65119500D01*
X109601000Y-66738500D02*
X113792000Y-66738500D01*
X109601000Y-71818500D02*
X112871000Y-71818500D01*
X112871000Y-71818500D02*
X113792000Y-70897500D01*
X113792000Y-65119500D02*
X112871000Y-64198500D01*
X112871000Y-64198500D02*
X109601000Y-64198500D01*
D22*
X131191000Y-82656500D02*
X130436200Y-82656500D01*
X130436200Y-82656500D02*
X129463200Y-83629500D01*
X128447800Y-83629500D02*
X127381000Y-83629500D01*
X129463200Y-83629500D02*
X128447800Y-83629500D01*
X163195000Y-50779500D02*
X162440200Y-50779500D01*
X162440200Y-50779500D02*
X161594200Y-51625500D01*
X161594200Y-51625500D02*
X160451800Y-51625500D01*
X160451800Y-51625500D02*
X159385000Y-51625500D01*
D21*
X156525000Y-115633500D02*
X156525000Y-106616500D01*
X156845000Y-126174500D02*
X159385000Y-126174500D01*
X156525000Y-123695500D02*
X156845000Y-124015500D01*
X156845000Y-124015500D02*
X156845000Y-126174500D01*
X156525000Y-115633500D02*
X156525000Y-123695500D01*
X124521000Y-93916500D02*
X124521000Y-107886500D01*
X124521000Y-107886500D02*
X124521000Y-115633500D01*
X124521000Y-106616500D02*
X124521000Y-107886500D01*
X124968000Y-126174500D02*
X127508000Y-126174500D01*
X124521000Y-124203500D02*
X124968000Y-124650500D01*
X124968000Y-124650500D02*
X124968000Y-126174500D01*
X124521000Y-115633500D02*
X124521000Y-124203500D01*
D22*
X163195000Y-114660500D02*
X162440200Y-114660500D01*
X162440200Y-114660500D02*
X161467200Y-115633500D01*
X161467200Y-115633500D02*
X160451800Y-115633500D01*
X160451800Y-115633500D02*
X159385000Y-115633500D01*
X163195000Y-82529500D02*
X162440200Y-82529500D01*
X162440200Y-82529500D02*
X161340200Y-83629500D01*
X161340200Y-83629500D02*
X160451800Y-83629500D01*
X160451800Y-83629500D02*
X159385000Y-83629500D01*
D21*
X156525000Y-83502500D02*
X156525000Y-93916500D01*
X159385000Y-83629500D02*
X156652000Y-83629500D01*
X156652000Y-83629500D02*
X156525000Y-83502500D01*
X156525000Y-93916500D02*
X156525000Y-115633500D01*
X159385000Y-115633500D02*
X156525000Y-115633500D01*
X156525000Y-61912500D02*
X156525000Y-53215500D01*
X156525000Y-53215500D02*
X158115000Y-51625500D01*
X158115000Y-51625500D02*
X159385000Y-51625500D01*
D22*
X127381000Y-115633500D02*
X126314200Y-115633500D01*
X130386000Y-114660500D02*
X129413000Y-115633500D01*
X129413000Y-115633500D02*
X127381000Y-115633500D01*
X131191000Y-114660500D02*
X130386000Y-114660500D01*
D21*
X127381000Y-115633500D02*
X124521000Y-115633500D01*
D22*
X131191000Y-50652500D02*
X130436200Y-50652500D01*
X130436200Y-50652500D02*
X129463200Y-51625500D01*
X129463200Y-51625500D02*
X128447800Y-51625500D01*
X128447800Y-51625500D02*
X127381000Y-51625500D01*
D21*
X124521000Y-61912500D02*
X124521000Y-51625500D01*
X124521000Y-51625500D02*
X124521000Y-40261500D01*
X127381000Y-51625500D02*
X126111000Y-51625500D01*
X126111000Y-51625500D02*
X124521000Y-51625500D01*
X124521000Y-40261500D02*
X124968000Y-39814500D01*
X124968000Y-39814500D02*
X124968000Y-37909500D01*
X122621000Y-96583500D02*
X122621000Y-87439500D01*
X122621000Y-87439500D02*
X122621000Y-81216500D01*
X119761000Y-87439500D02*
X122621000Y-87439500D01*
X122621000Y-97599500D02*
X122621000Y-97345500D01*
X122621000Y-96583500D02*
X122621000Y-97345500D01*
X122621000Y-93916500D02*
X122621000Y-96583500D01*
X154625000Y-97345500D02*
X154625000Y-106616500D01*
X154625000Y-96583500D02*
X154625000Y-97345500D01*
X154625000Y-93916500D02*
X154625000Y-96583500D01*
X169037000Y-40068500D02*
X161391600Y-40068500D01*
X161391600Y-40068500D02*
X159385000Y-38061900D01*
X159385000Y-38061900D02*
X159385000Y-37909500D01*
D20*
X164973000Y-96996500D02*
X164973000Y-98742500D01*
X164973000Y-98742500D02*
X164973000Y-101282500D01*
X169037000Y-98742500D02*
X165767000Y-98742500D01*
X165767000Y-98742500D02*
X164973000Y-98742500D01*
X164973000Y-101282500D02*
X164973000Y-103060500D01*
X169037000Y-101282500D02*
X164973000Y-101282500D01*
X164973000Y-103060500D02*
X165735000Y-103822500D01*
X165735000Y-103822500D02*
X169037000Y-103822500D01*
X169037000Y-96202500D02*
X165767000Y-96202500D01*
X165767000Y-96202500D02*
X164973000Y-96996500D01*
X113665000Y-96996500D02*
X113665000Y-98742500D01*
X109601000Y-98742500D02*
X112871000Y-98742500D01*
X113665000Y-98742500D02*
X113665000Y-101282500D01*
X112871000Y-98742500D02*
X113665000Y-98742500D01*
X113665000Y-101282500D02*
X113665000Y-103028500D01*
X109601000Y-101282500D02*
X112871000Y-101282500D01*
X112871000Y-101282500D02*
X113665000Y-101282500D01*
X109601000Y-96202500D02*
X112871000Y-96202500D01*
X112871000Y-96202500D02*
X113665000Y-96996500D01*
X113665000Y-103028500D02*
X112871000Y-103822500D01*
X112871000Y-103822500D02*
X109601000Y-103822500D01*
D21*
X154625000Y-93916500D02*
X154625000Y-87439500D01*
X154625000Y-87439500D02*
X154625000Y-81089500D01*
X151765000Y-87439500D02*
X154625000Y-87439500D01*
X122621000Y-81216500D02*
X122621000Y-61912500D01*
X119761000Y-81089500D02*
X122494000Y-81089500D01*
X122494000Y-81089500D02*
X122621000Y-81216500D01*
X154625000Y-81089500D02*
X154625000Y-61912500D01*
X151765000Y-81089500D02*
X154625000Y-81089500D01*
D22*
X116586000Y-49085500D02*
X119761000Y-49085500D01*
X113538000Y-40068500D02*
X116586000Y-43116500D01*
X116586000Y-43116500D02*
X116586000Y-45656500D01*
X109601000Y-40068500D02*
X113538000Y-40068500D01*
D21*
X154625000Y-106616500D02*
X154625000Y-113093500D01*
X154625000Y-113093500D02*
X154625000Y-119377500D01*
X151765000Y-113093500D02*
X154625000Y-113093500D01*
X154625000Y-123695500D02*
X154305000Y-124015500D01*
X154305000Y-124015500D02*
X154305000Y-126174500D01*
X154625000Y-119377500D02*
X154625000Y-123695500D01*
X154625000Y-119377500D02*
X154559000Y-119443500D01*
X154559000Y-119443500D02*
X151765000Y-119443500D01*
X151765000Y-126174500D02*
X154305000Y-126174500D01*
X122621000Y-107632500D02*
X122621000Y-97599500D01*
X122621000Y-106616500D02*
X122621000Y-97599500D01*
X122621000Y-113093500D02*
X122621000Y-107632500D01*
X122621000Y-106616500D02*
X122621000Y-107632500D01*
X122621000Y-124076500D02*
X122428000Y-124269500D01*
X122428000Y-124269500D02*
X122428000Y-126174500D01*
X122621000Y-119443500D02*
X122621000Y-124076500D01*
X119888000Y-126174500D02*
X122428000Y-126174500D01*
X122621000Y-119443500D02*
X122621000Y-113093500D01*
X119761000Y-113093500D02*
X122621000Y-113093500D01*
X119761000Y-119443500D02*
X122621000Y-119443500D01*
X122621000Y-61912500D02*
X122621000Y-55308500D01*
X122621000Y-55308500D02*
X122621000Y-50040500D01*
X119761000Y-55435500D02*
X122494000Y-55435500D01*
X122494000Y-55435500D02*
X122621000Y-55308500D01*
X122621000Y-50040500D02*
X121666000Y-49085500D01*
X121666000Y-49085500D02*
X119761000Y-49085500D01*
X154625000Y-61912500D02*
X154625000Y-55435500D01*
X154625000Y-55435500D02*
X154625000Y-49085500D01*
X151765000Y-55435500D02*
X154625000Y-55435500D01*
X154625000Y-49085500D02*
X154625000Y-40261500D01*
X151765000Y-49085500D02*
X154625000Y-49085500D01*
X154305000Y-37909500D02*
X151765000Y-37909500D01*
X156845000Y-37909500D02*
X159385000Y-37909500D01*
X154305000Y-37909500D02*
X156845000Y-37909500D01*
X154625000Y-40261500D02*
X154305000Y-39941500D01*
X154305000Y-39941500D02*
X154305000Y-37909500D01*
D22*
X111319000Y-61008500D02*
X111350988Y-61008500D01*
X111350988Y-61008500D02*
X118193988Y-54165500D01*
X118193988Y-54165500D02*
X119761000Y-54165500D01*
X111319000Y-58468500D02*
X115951000Y-53836500D01*
X115951000Y-53836500D02*
X115951000Y-52387500D01*
X115951000Y-52387500D02*
X117983000Y-50355500D01*
X117983000Y-50355500D02*
X119761000Y-50355500D01*
X131826000Y-58610500D02*
X131826000Y-57213500D01*
X130048000Y-55435500D02*
X128447800Y-55435500D01*
X131826000Y-57213500D02*
X130048000Y-55435500D01*
X128447800Y-55435500D02*
X127381000Y-55435500D01*
X111319000Y-53388500D02*
X118162000Y-46545500D01*
X118162000Y-46545500D02*
X119761000Y-46545500D01*
X129540000Y-46545500D02*
X127381000Y-46545500D01*
X111319000Y-48308500D02*
X109870000Y-48308500D01*
X109870000Y-48308500D02*
X109473991Y-48704509D01*
X109473991Y-48704509D02*
X109473991Y-61021781D01*
X109473991Y-61021781D02*
X110716311Y-62264101D01*
X110716311Y-62264101D02*
X112424399Y-62264101D01*
X112424399Y-62264101D02*
X117983000Y-56705500D01*
X117983000Y-56705500D02*
X119761000Y-56705500D01*
X119761000Y-52895500D02*
X117983000Y-52895500D01*
X111916953Y-59724101D02*
X110716311Y-59724101D01*
X117983000Y-52895500D02*
X117094000Y-53784500D01*
X117094000Y-53784500D02*
X117094000Y-54547054D01*
X117094000Y-54547054D02*
X111916953Y-59724101D01*
X110716311Y-59724101D02*
X109982000Y-58989790D01*
X109982000Y-58989790D02*
X109982000Y-50101500D01*
X111921689Y-49564101D02*
X112574601Y-48911189D01*
X109982000Y-50101500D02*
X110519399Y-49564101D01*
X112571401Y-47020901D02*
X111319000Y-45768500D01*
X110519399Y-49564101D02*
X111921689Y-49564101D01*
X112574601Y-48911189D02*
X112574601Y-47024101D01*
X112574601Y-47024101D02*
X112571401Y-47020901D01*
X128778000Y-57975500D02*
X127381000Y-57975500D01*
X131825990Y-46926510D02*
X131825991Y-44730283D01*
X127381000Y-49085500D02*
X129667000Y-49085500D01*
X129667000Y-49085500D02*
X131825990Y-46926510D01*
X133350000Y-45879210D02*
X133350000Y-55817790D01*
X131825991Y-44730283D02*
X134583375Y-41972899D01*
X134583375Y-41972899D02*
X135921689Y-41972899D01*
X136574601Y-59752899D02*
X136218999Y-60108501D01*
X135921689Y-41972899D02*
X136574601Y-42625811D01*
X134716311Y-57184101D02*
X135892891Y-57184101D01*
X136574601Y-42625811D02*
X136574601Y-43831189D01*
X136574601Y-43831189D02*
X135892891Y-44512899D01*
X135892891Y-44512899D02*
X134716311Y-44512899D01*
X134716311Y-44512899D02*
X133350000Y-45879210D01*
X135892891Y-57184101D02*
X136574601Y-57865811D01*
X133350000Y-55817790D02*
X134716311Y-57184101D01*
X136574601Y-57865811D02*
X136574601Y-59752899D01*
X136218999Y-60108501D02*
X135319000Y-61008500D01*
X133843000Y-58468500D02*
X129540000Y-54165500D01*
X129540000Y-54165500D02*
X127381000Y-54165500D01*
X135319000Y-58468500D02*
X133843000Y-58468500D01*
X118237000Y-57975500D02*
X119761000Y-57975500D01*
X117729000Y-58483500D02*
X118237000Y-57975500D01*
X117729000Y-59372500D02*
X117729000Y-58483500D01*
X117856000Y-51625500D02*
X119761000Y-51625500D01*
X131317982Y-46164518D02*
X129667000Y-47815500D01*
X129667000Y-47815500D02*
X127381000Y-47815500D01*
X131317982Y-44519860D02*
X131317982Y-46164518D01*
X135319000Y-50848500D02*
X137082611Y-49084889D01*
X137082611Y-49084889D02*
X137082611Y-42415387D01*
X137082611Y-42415387D02*
X136132113Y-41464889D01*
X136132113Y-41464889D02*
X134372950Y-41464890D01*
X134372950Y-41464890D02*
X131317982Y-44519860D01*
X118110000Y-47815500D02*
X119761000Y-47815500D01*
X135319000Y-45768500D02*
X134063399Y-47024101D01*
X134063399Y-47024101D02*
X134063399Y-53991189D01*
X134063399Y-53991189D02*
X134745109Y-54672899D01*
X135921689Y-54672899D02*
X137082611Y-55833821D01*
X134745109Y-54672899D02*
X135921689Y-54672899D01*
X137082611Y-55833821D02*
X137082611Y-61103179D01*
X137082611Y-61103179D02*
X135921689Y-62264101D01*
X128447800Y-56705500D02*
X127381000Y-56705500D01*
X135921689Y-62264101D02*
X134006401Y-62264101D01*
X134006401Y-62264101D02*
X128447800Y-56705500D01*
X132334000Y-47180500D02*
X129159000Y-50355500D01*
X129159000Y-50355500D02*
X127381000Y-50355500D01*
X132334000Y-44940708D02*
X132334000Y-47180500D01*
X135319000Y-43228500D02*
X134046208Y-43228500D01*
X134046208Y-43228500D02*
X132334000Y-44940708D01*
X111319000Y-125016500D02*
X118162000Y-118173500D01*
X118162000Y-118173500D02*
X119761000Y-118173500D01*
X111319000Y-122476500D02*
X116459000Y-117336500D01*
X116459000Y-117336500D02*
X116459000Y-115506500D01*
X116459000Y-115506500D02*
X117602000Y-114363500D01*
X117602000Y-114363500D02*
X119761000Y-114363500D01*
X132588000Y-122999500D02*
X129032000Y-119443500D01*
X129032000Y-119443500D02*
X127381000Y-119443500D01*
X111319000Y-117396500D02*
X118162000Y-110553500D01*
X118162000Y-110553500D02*
X119761000Y-110553500D01*
X129794000Y-110553500D02*
X127381000Y-110553500D01*
X112551399Y-126272101D02*
X118110000Y-120713500D01*
X118110000Y-120713500D02*
X119761000Y-120713500D01*
X111319000Y-112316500D02*
X110046208Y-112316500D01*
X110046208Y-112316500D02*
X109555390Y-112807318D01*
X109555390Y-112807318D02*
X109555390Y-125111180D01*
X109555390Y-125111180D02*
X110716311Y-126272101D01*
X110716311Y-126272101D02*
X112551399Y-126272101D01*
X110716311Y-123732101D02*
X111865599Y-123732101D01*
X111865599Y-123732101D02*
X118694200Y-116903500D01*
X118694200Y-116903500D02*
X119761000Y-116903500D01*
X111319000Y-109776500D02*
X112574601Y-111032101D01*
X110063399Y-114253811D02*
X110063399Y-123079189D01*
X112574601Y-111032101D02*
X112574601Y-112919189D01*
X112574601Y-112919189D02*
X111892891Y-113600899D01*
X111892891Y-113600899D02*
X110716311Y-113600899D01*
X110716311Y-113600899D02*
X110063399Y-114253811D01*
X110063399Y-123079189D02*
X110716311Y-123732101D01*
X128778000Y-121983500D02*
X127381000Y-121983500D01*
X132207000Y-110553500D02*
X129667000Y-113093500D01*
X129667000Y-113093500D02*
X127381000Y-113093500D01*
X132207000Y-108490210D02*
X132207000Y-110553500D01*
X135319000Y-125016500D02*
X136574601Y-123760899D01*
X136574601Y-106633811D02*
X135921689Y-105980899D01*
X136574601Y-123760899D02*
X136574601Y-121845013D01*
X136574601Y-121845013D02*
X135921689Y-121192101D01*
X136574601Y-107839189D02*
X136574601Y-106633811D01*
X135921689Y-121192101D02*
X134716311Y-121192101D01*
X134716311Y-121192101D02*
X133555389Y-120031179D01*
X133555389Y-120031179D02*
X133555389Y-109718545D01*
X135921689Y-105980899D02*
X134716311Y-105980899D01*
X133555389Y-109718545D02*
X134781833Y-108492101D01*
X134781833Y-108492101D02*
X135921689Y-108492101D01*
X135921689Y-108492101D02*
X136574601Y-107839189D01*
X134716311Y-105980899D02*
X132207000Y-108490210D01*
X135319000Y-122476500D02*
X134046208Y-122476500D01*
X134046208Y-122476500D02*
X129743208Y-118173500D01*
X129743208Y-118173500D02*
X128447800Y-118173500D01*
X128447800Y-118173500D02*
X127381000Y-118173500D01*
X118237000Y-121983500D02*
X119761000Y-121983500D01*
X118110000Y-115633500D02*
X119761000Y-115633500D01*
X131698990Y-109918510D02*
X129794000Y-111823500D01*
X129794000Y-111823500D02*
X127381000Y-111823500D01*
X131698990Y-108279786D02*
X131698990Y-109918510D01*
X135319000Y-114856500D02*
X137082611Y-113092889D01*
X137082611Y-113092889D02*
X137082610Y-106423386D01*
X137082610Y-106423386D02*
X136132113Y-105472889D01*
X136132113Y-105472889D02*
X134505886Y-105472890D01*
X134505886Y-105472890D02*
X131698990Y-108279786D01*
X118110000Y-111823500D02*
X119761000Y-111823500D01*
X138049000Y-120808210D02*
X138049000Y-124144790D01*
X138049000Y-124144790D02*
X135921689Y-126272101D01*
X135921689Y-126272101D02*
X134006401Y-126272101D01*
X134006401Y-126272101D02*
X128447800Y-120713500D01*
X128447800Y-120713500D02*
X127381000Y-120713500D01*
X135319000Y-109776500D02*
X135319000Y-110458210D01*
X134063399Y-117999189D02*
X134745109Y-118680899D01*
X135319000Y-110458210D02*
X134063399Y-111713811D01*
X134063399Y-111713811D02*
X134063399Y-117999189D01*
X134745109Y-118680899D02*
X135921689Y-118680899D01*
X135921689Y-118680899D02*
X138049000Y-120808210D01*
X135319000Y-107236500D02*
X132715010Y-109840490D01*
X132715010Y-109840490D02*
X132715010Y-111061490D01*
X132715010Y-111061490D02*
X129413000Y-114363500D01*
X129413000Y-114363500D02*
X127381000Y-114363500D01*
X143323000Y-93012500D02*
X150166000Y-86169500D01*
X150166000Y-86169500D02*
X151765000Y-86169500D01*
X148209000Y-83883500D02*
X149733000Y-82359500D01*
X149733000Y-82359500D02*
X151765000Y-82359500D01*
X148209000Y-85586500D02*
X148209000Y-83883500D01*
X143323000Y-90472500D02*
X148209000Y-85586500D01*
X164592000Y-90868500D02*
X161163000Y-87439500D01*
X161163000Y-87439500D02*
X159385000Y-87439500D01*
X143323000Y-85392500D02*
X150166000Y-78549500D01*
X150166000Y-78549500D02*
X151765000Y-78549500D01*
X161798000Y-78549500D02*
X159385000Y-78549500D01*
X144301399Y-94268101D02*
X149860000Y-88709500D01*
X149860000Y-88709500D02*
X151765000Y-88709500D01*
X143323000Y-80312500D02*
X142050208Y-80312500D01*
X142050208Y-80312500D02*
X141559389Y-80803319D01*
X141559389Y-80803319D02*
X141559389Y-93107179D01*
X141559389Y-93107179D02*
X142720311Y-94268101D01*
X142720311Y-94268101D02*
X144301399Y-94268101D01*
X142720311Y-91728101D02*
X143869599Y-91728101D01*
X143869599Y-91728101D02*
X150698200Y-84899500D01*
X150698200Y-84899500D02*
X151765000Y-84899500D01*
X143323000Y-77772500D02*
X144578601Y-79028101D01*
X144578601Y-79028101D02*
X144578601Y-80943987D01*
X144578601Y-80943987D02*
X143925689Y-81596899D01*
X143925689Y-81596899D02*
X142720311Y-81596899D01*
X142720311Y-81596899D02*
X142067399Y-82249811D01*
X142067399Y-82249811D02*
X142067399Y-91075189D01*
X142067399Y-91075189D02*
X142720311Y-91728101D01*
X160782000Y-89979500D02*
X159385000Y-89979500D01*
X167323000Y-93012500D02*
X168578601Y-91756899D01*
X168578601Y-91756899D02*
X168578601Y-89869811D01*
X163449000Y-77196066D02*
X163449000Y-79184500D01*
X168578601Y-89869811D02*
X167896891Y-89188101D01*
X167896891Y-89188101D02*
X166720311Y-89188101D01*
X166720311Y-89188101D02*
X165559389Y-88027179D01*
X165559389Y-88027179D02*
X165559389Y-77714545D01*
X165559389Y-77714545D02*
X166785833Y-76488101D01*
X166785833Y-76488101D02*
X167925689Y-76488101D01*
X167925689Y-76488101D02*
X168578601Y-75835189D01*
X166668167Y-73976899D02*
X163449000Y-77196066D01*
X163449000Y-79184500D02*
X161544000Y-81089500D01*
X168578601Y-75835189D02*
X168578601Y-74629811D01*
X168578601Y-74629811D02*
X167925689Y-73976899D01*
X167925689Y-73976899D02*
X166668167Y-73976899D01*
X161544000Y-81089500D02*
X159385000Y-81089500D01*
X165466000Y-90472500D02*
X161163000Y-86169500D01*
X161163000Y-86169500D02*
X159385000Y-86169500D01*
X167323000Y-90472500D02*
X165466000Y-90472500D01*
X149987000Y-89979500D02*
X151765000Y-89979500D01*
X149987000Y-83629500D02*
X151765000Y-83629500D01*
X167323000Y-82852500D02*
X169086614Y-81088885D01*
X161498290Y-79819500D02*
X160451800Y-79819500D01*
X169086614Y-81088885D02*
X169086609Y-74281109D01*
X162453601Y-75996133D02*
X162453601Y-78864189D01*
X169086609Y-74281109D02*
X168274389Y-73468889D01*
X168274389Y-73468889D02*
X164980844Y-73468890D01*
X164980844Y-73468890D02*
X162453601Y-75996133D01*
X162453601Y-78864189D02*
X161498290Y-79819500D01*
X160451800Y-79819500D02*
X159385000Y-79819500D01*
X150241000Y-79819500D02*
X151765000Y-79819500D01*
X166721601Y-94268101D02*
X161163000Y-88709500D01*
X161163000Y-88709500D02*
X159385000Y-88709500D01*
X169291000Y-88042210D02*
X169291000Y-92902790D01*
X169291000Y-92902790D02*
X167925689Y-94268101D01*
X167925689Y-94268101D02*
X166721601Y-94268101D01*
X167323000Y-77772500D02*
X166067399Y-79028101D01*
X166067399Y-79028101D02*
X166067399Y-85995189D01*
X166067399Y-85995189D02*
X166749109Y-86676899D01*
X166749109Y-86676899D02*
X167925689Y-86676899D01*
X167925689Y-86676899D02*
X169291000Y-88042210D01*
X159385000Y-82359500D02*
X161544000Y-82359500D01*
X161544000Y-82359500D02*
X165051379Y-78852121D01*
X165051379Y-78852121D02*
X165051379Y-76312121D01*
X165051379Y-76312121D02*
X166243000Y-75120500D01*
X166243000Y-75120500D02*
X167211000Y-75120500D01*
X167211000Y-75120500D02*
X167323000Y-75232500D01*
X119761000Y-86169500D02*
X118162000Y-86169500D01*
X118162000Y-86169500D02*
X111319000Y-93012500D01*
X116840000Y-84010500D02*
X118491000Y-82359500D01*
X118491000Y-82359500D02*
X119761000Y-82359500D01*
X116840000Y-84899500D02*
X116840000Y-84010500D01*
X116586000Y-85205500D02*
X116586000Y-85153500D01*
X116586000Y-85153500D02*
X116840000Y-84899500D01*
X111319000Y-90472500D02*
X116586000Y-85205500D01*
X131953000Y-90614500D02*
X131953000Y-89808934D01*
X131953000Y-89808934D02*
X129583566Y-87439500D01*
X129583566Y-87439500D02*
X128447800Y-87439500D01*
X128447800Y-87439500D02*
X127381000Y-87439500D01*
X111319000Y-85392500D02*
X118162000Y-78549500D01*
X118162000Y-78549500D02*
X119761000Y-78549500D01*
X129667000Y-78549500D02*
X127381000Y-78549500D01*
X112805399Y-94268101D02*
X118364000Y-88709500D01*
X118364000Y-88709500D02*
X119761000Y-88709500D01*
X111319000Y-80312500D02*
X110046208Y-80312500D01*
X110046208Y-80312500D02*
X109555390Y-80803318D01*
X110716311Y-94268101D02*
X112805399Y-94268101D01*
X109555390Y-80803318D02*
X109555390Y-93107180D01*
X109555390Y-93107180D02*
X110716311Y-94268101D01*
X110716311Y-91728101D02*
X111865599Y-91728101D01*
X111865599Y-91728101D02*
X118694200Y-84899500D01*
X118694200Y-84899500D02*
X119761000Y-84899500D01*
X111319000Y-77772500D02*
X112574601Y-79028101D01*
X112574601Y-79028101D02*
X112574601Y-80909899D01*
X110716311Y-81596899D02*
X110063399Y-82249811D01*
X112574601Y-80909899D02*
X111887601Y-81596899D01*
X111887601Y-81596899D02*
X110716311Y-81596899D01*
X110063399Y-82249811D02*
X110063399Y-91075189D01*
X110063399Y-91075189D02*
X110716311Y-91728101D01*
X128905000Y-89979500D02*
X127381000Y-89979500D01*
X132333990Y-78676510D02*
X129921000Y-81089500D01*
X129921000Y-81089500D02*
X127381000Y-81089500D01*
X132333990Y-77499076D02*
X132333990Y-78676510D01*
X132334000Y-76359210D02*
X132334000Y-77499066D01*
X132334000Y-77499066D02*
X132333990Y-77499076D01*
X133555390Y-77714544D02*
X134781833Y-76488101D01*
X134781833Y-76488101D02*
X135921689Y-76488101D01*
X135921689Y-76488101D02*
X136574601Y-75835189D01*
X136574601Y-75835189D02*
X136574601Y-74629811D01*
X136574601Y-74629811D02*
X135921689Y-73976899D01*
X135921689Y-73976899D02*
X134716311Y-73976899D01*
X134716311Y-73976899D02*
X132334000Y-76359210D01*
X135319000Y-93012500D02*
X136574601Y-91756899D01*
X136574601Y-91756899D02*
X136574601Y-89841013D01*
X136574601Y-89841013D02*
X135921689Y-89188101D01*
X135921689Y-89188101D02*
X134716311Y-89188101D01*
X134716311Y-89188101D02*
X133555390Y-88027180D01*
X133555390Y-88027180D02*
X133555390Y-77714544D01*
X133335000Y-90472500D02*
X129032000Y-86169500D01*
X129032000Y-86169500D02*
X127381000Y-86169500D01*
X135319000Y-90472500D02*
X133335000Y-90472500D01*
X118237000Y-89979500D02*
X119761000Y-89979500D01*
X118237000Y-83629500D02*
X119761000Y-83629500D01*
X131825980Y-78168520D02*
X130175000Y-79819500D01*
X130175000Y-79819500D02*
X127381000Y-79819500D01*
X131825980Y-76148796D02*
X131825980Y-78168520D01*
X135319000Y-82852500D02*
X137082610Y-81088890D01*
X137082610Y-81088890D02*
X137082610Y-74419386D01*
X137082610Y-74419386D02*
X136132113Y-73468889D01*
X136132113Y-73468889D02*
X134505886Y-73468890D01*
X134505886Y-73468890D02*
X131825980Y-76148796D01*
X117983000Y-79819500D02*
X119761000Y-79819500D01*
X134463601Y-94268101D02*
X128905000Y-88709500D01*
X128905000Y-88709500D02*
X127381000Y-88709500D01*
X137668000Y-88423210D02*
X137668000Y-92521790D01*
X137668000Y-92521790D02*
X135921689Y-94268101D01*
X135921689Y-94268101D02*
X134463601Y-94268101D01*
X135319000Y-77772500D02*
X134063399Y-79028101D01*
X134063399Y-79028101D02*
X134063399Y-86023987D01*
X134063399Y-86023987D02*
X134716311Y-86676899D01*
X134716311Y-86676899D02*
X135921689Y-86676899D01*
X135921689Y-86676899D02*
X137668000Y-88423210D01*
X132842000Y-79057500D02*
X129540000Y-82359500D01*
X129540000Y-82359500D02*
X127381000Y-82359500D01*
X132842000Y-77709500D02*
X132842000Y-79057500D01*
X135319000Y-75232500D02*
X132842000Y-77709500D01*
X143323000Y-61008500D02*
X150166000Y-54165500D01*
X150166000Y-54165500D02*
X151765000Y-54165500D01*
X143323000Y-58468500D02*
X148209000Y-53582500D01*
X148209000Y-53582500D02*
X148209000Y-51625500D01*
X148209000Y-51625500D02*
X149479000Y-50355500D01*
X149479000Y-50355500D02*
X151765000Y-50355500D01*
X164211000Y-58483500D02*
X161163000Y-55435500D01*
X161163000Y-55435500D02*
X159385000Y-55435500D01*
X143323000Y-53388500D02*
X150166000Y-46545500D01*
X150166000Y-46545500D02*
X151765000Y-46545500D01*
X161798000Y-46545500D02*
X159385000Y-46545500D01*
X144301399Y-62264101D02*
X149860000Y-56705500D01*
X149860000Y-56705500D02*
X151765000Y-56705500D01*
X143323000Y-48308500D02*
X142050208Y-48308500D01*
X142050208Y-48308500D02*
X141559389Y-48799319D01*
X141559389Y-48799319D02*
X141559389Y-61103179D01*
X141559389Y-61103179D02*
X142720311Y-62264101D01*
X142720311Y-62264101D02*
X144301399Y-62264101D01*
X143860167Y-59752899D02*
X143860167Y-59733533D01*
X143860167Y-59733533D02*
X150698200Y-52895500D01*
X150698200Y-52895500D02*
X151765000Y-52895500D01*
X143323000Y-45768500D02*
X144578601Y-47024101D01*
X144578601Y-47024101D02*
X144578601Y-48939987D01*
X144578601Y-48939987D02*
X143925689Y-49592899D01*
X143925689Y-49592899D02*
X142720311Y-49592899D01*
X142720311Y-49592899D02*
X142067399Y-50245811D01*
X142067399Y-50245811D02*
X142067399Y-59099987D01*
X142067399Y-59099987D02*
X142720311Y-59752899D01*
X142720311Y-59752899D02*
X143860167Y-59752899D01*
X160782000Y-57975500D02*
X159385000Y-57975500D01*
X164464990Y-46418510D02*
X161798000Y-49085500D01*
X161798000Y-49085500D02*
X159385000Y-49085500D01*
X164464990Y-44228220D02*
X164464990Y-46418510D01*
X167323000Y-61008500D02*
X168578601Y-59752899D01*
X168578601Y-59752899D02*
X168578601Y-57837013D01*
X166785833Y-44484101D02*
X167925689Y-44484101D01*
X168578601Y-43831189D02*
X168578601Y-42625811D01*
X168578601Y-57837013D02*
X167925689Y-57184101D01*
X167925689Y-57184101D02*
X166720311Y-57184101D01*
X166720311Y-57184101D02*
X165481010Y-55944800D01*
X165481010Y-55944800D02*
X165481010Y-45788924D01*
X165481010Y-45788924D02*
X166785833Y-44484101D01*
X167925689Y-44484101D02*
X168578601Y-43831189D01*
X168578601Y-42625811D02*
X167925689Y-41972899D01*
X167925689Y-41972899D02*
X166720311Y-41972899D01*
X166720311Y-41972899D02*
X164464990Y-44228220D01*
X167323000Y-58468500D02*
X166050208Y-58468500D01*
X166050208Y-58468500D02*
X161747208Y-54165500D01*
X161747208Y-54165500D02*
X160451800Y-54165500D01*
X160451800Y-54165500D02*
X159385000Y-54165500D01*
X150114000Y-57975500D02*
X151765000Y-57975500D01*
X149987000Y-51625500D02*
X151765000Y-51625500D01*
X163956980Y-45656520D02*
X161798000Y-47815500D01*
X161798000Y-47815500D02*
X159385000Y-47815500D01*
X163956980Y-44017796D02*
X163956980Y-45656520D01*
X167323000Y-50848500D02*
X168578601Y-49592899D01*
X168578601Y-49592899D02*
X168578601Y-46371189D01*
X168578601Y-46371189D02*
X169086610Y-45863180D01*
X166509886Y-41464890D02*
X163956980Y-44017796D01*
X169086610Y-45863180D02*
X169086610Y-42415386D01*
X169086610Y-42415386D02*
X168136113Y-41464889D01*
X168136113Y-41464889D02*
X166509886Y-41464890D01*
X150114000Y-47815500D02*
X151765000Y-47815500D01*
X169799000Y-56546210D02*
X169799000Y-60390790D01*
X169799000Y-60390790D02*
X167925689Y-62264101D01*
X167925689Y-62264101D02*
X166010401Y-62264101D01*
X166010401Y-62264101D02*
X160451800Y-56705500D01*
X160451800Y-56705500D02*
X159385000Y-56705500D01*
X167323000Y-45768500D02*
X166067399Y-47024101D01*
X166749109Y-54672899D02*
X167925689Y-54672899D01*
X167925689Y-54672899D02*
X169799000Y-56546210D01*
X166067399Y-47024101D02*
X166067399Y-53991189D01*
X166067399Y-53991189D02*
X166749109Y-54672899D01*
X164973000Y-46926500D02*
X161544000Y-50355500D01*
X161544000Y-50355500D02*
X159385000Y-50355500D01*
X164973000Y-45578500D02*
X164973000Y-46926500D01*
X167323000Y-43228500D02*
X164973000Y-45578500D01*
X143323000Y-125016500D02*
X150166000Y-118173500D01*
X150166000Y-118173500D02*
X151765000Y-118173500D01*
X148209000Y-115887500D02*
X149733000Y-114363500D01*
X149733000Y-114363500D02*
X151765000Y-114363500D01*
X148209000Y-117590500D02*
X148209000Y-115887500D01*
X143323000Y-122476500D02*
X148209000Y-117590500D01*
X164338000Y-122618500D02*
X164338000Y-121939934D01*
X164338000Y-121939934D02*
X161841566Y-119443500D01*
X161841566Y-119443500D02*
X160451800Y-119443500D01*
X160451800Y-119443500D02*
X159385000Y-119443500D01*
X143323000Y-117396500D02*
X150166000Y-110553500D01*
X150166000Y-110553500D02*
X151765000Y-110553500D01*
X161798000Y-110553500D02*
X159385000Y-110553500D01*
X144047399Y-126272101D02*
X149606000Y-120713500D01*
X149606000Y-120713500D02*
X151765000Y-120713500D01*
X143323000Y-112316500D02*
X142050208Y-112316500D01*
X142050208Y-112316500D02*
X141559389Y-112807319D01*
X141559389Y-112807319D02*
X141559389Y-125493889D01*
X141559389Y-125493889D02*
X142337601Y-126272101D01*
X142337601Y-126272101D02*
X144047399Y-126272101D01*
X142720311Y-123732101D02*
X143869599Y-123732101D01*
X143869599Y-123732101D02*
X150698200Y-116903500D01*
X150698200Y-116903500D02*
X151765000Y-116903500D01*
X143323000Y-109776500D02*
X144578601Y-111032101D01*
X144578601Y-111032101D02*
X144578601Y-112913899D01*
X144578601Y-112913899D02*
X143891601Y-113600899D01*
X143891601Y-113600899D02*
X142720311Y-113600899D01*
X142720311Y-113600899D02*
X142067399Y-114253811D01*
X142067399Y-114253811D02*
X142067399Y-123079189D01*
X142067399Y-123079189D02*
X142720311Y-123732101D01*
X160782000Y-121983500D02*
X159385000Y-121983500D01*
X163702990Y-111061510D02*
X161671000Y-113093500D01*
X161671000Y-113093500D02*
X159385000Y-113093500D01*
X163702990Y-108998220D02*
X163702990Y-111061510D01*
X167323000Y-125016500D02*
X168578601Y-123760899D01*
X168578601Y-123760899D02*
X168578601Y-121873811D01*
X168578601Y-121873811D02*
X167896891Y-121192101D01*
X167896891Y-121192101D02*
X166720311Y-121192101D01*
X166720311Y-121192101D02*
X165227000Y-119698790D01*
X165227000Y-119698790D02*
X165227000Y-110050934D01*
X165227000Y-110050934D02*
X166785833Y-108492101D01*
X166785833Y-108492101D02*
X167925689Y-108492101D01*
X167925689Y-108492101D02*
X168578601Y-107839189D01*
X168578601Y-107839189D02*
X168578601Y-106633811D01*
X168578601Y-106633811D02*
X167925689Y-105980899D01*
X167925689Y-105980899D02*
X166720311Y-105980899D01*
X166720311Y-105980899D02*
X163702990Y-108998220D01*
X165593000Y-122476500D02*
X161290000Y-118173500D01*
X161290000Y-118173500D02*
X159385000Y-118173500D01*
X167323000Y-122476500D02*
X165593000Y-122476500D01*
X149987000Y-121983500D02*
X151765000Y-121983500D01*
X149987000Y-115633500D02*
X151765000Y-115633500D01*
X163068000Y-110978066D02*
X162222566Y-111823500D01*
X162222566Y-111823500D02*
X159385000Y-111823500D01*
X167323000Y-114856500D02*
X169086611Y-113092889D01*
X169086611Y-113092889D02*
X169086611Y-106423387D01*
X169086611Y-106423387D02*
X168136113Y-105472889D01*
X168136113Y-105472889D02*
X166509886Y-105472890D01*
X166509886Y-105472890D02*
X163068000Y-108914776D01*
X163068000Y-108914776D02*
X163068000Y-110978066D01*
X150241000Y-111823500D02*
X151765000Y-111823500D01*
X166594601Y-126272101D02*
X161036000Y-120713500D01*
X161036000Y-120713500D02*
X159385000Y-120713500D01*
X169291000Y-120046210D02*
X169291000Y-124906790D01*
X169291000Y-124906790D02*
X167925689Y-126272101D01*
X167925689Y-126272101D02*
X166594601Y-126272101D01*
X167323000Y-109776500D02*
X166067399Y-111032101D01*
X166067399Y-111032101D02*
X166067399Y-117999189D01*
X166067399Y-117999189D02*
X166749109Y-118680899D01*
X166749109Y-118680899D02*
X167925689Y-118680899D01*
X167925689Y-118680899D02*
X169291000Y-120046210D01*
X164211000Y-111696500D02*
X161544000Y-114363500D01*
X161544000Y-114363500D02*
X159385000Y-114363500D01*
X164211000Y-110348500D02*
X164211000Y-111696500D01*
X167323000Y-107236500D02*
X164211000Y-110348500D01*
X119888000Y-37909500D02*
X119888000Y-45148500D01*
X119888000Y-45148500D02*
X119761000Y-45275500D01*
D23*
X109601000Y-37528500D02*
X119507000Y-37528500D01*
X119507000Y-37528500D02*
X119888000Y-37909500D01*
D22*
X159131000Y-105473500D02*
X159131000Y-109029500D01*
X159131000Y-109029500D02*
X159385000Y-109283500D01*
X152527000Y-100647500D02*
X152654000Y-100774500D01*
X152654000Y-100774500D02*
X152654000Y-105473500D01*
X150622000Y-98742500D02*
X152527000Y-100647500D01*
X139319000Y-93027500D02*
X139319000Y-43243500D01*
X139319000Y-43243500D02*
X146024610Y-36537890D01*
X146024610Y-36537890D02*
X165741590Y-36537890D01*
X165741590Y-36537890D02*
X166732200Y-37528500D01*
X166732200Y-37528500D02*
X169037000Y-37528500D01*
X150622000Y-98742500D02*
X146939000Y-95059500D01*
X121666000Y-48069500D02*
X121666000Y-40830500D01*
X121666000Y-54483000D02*
X121666000Y-50609500D01*
X121665399Y-59373101D02*
X121665399Y-56960101D01*
X121665399Y-56960101D02*
X121666000Y-56959500D01*
X153670000Y-118681500D02*
X153670000Y-114490500D01*
X153670000Y-122618500D02*
X153670000Y-120332500D01*
X153670000Y-112072111D02*
X153670000Y-107276582D01*
X153670000Y-107276582D02*
X153669399Y-107275981D01*
X153669399Y-107275981D02*
X153669399Y-91377101D01*
X153669399Y-91377101D02*
X153670000Y-91376500D01*
X121666000Y-112077500D02*
X121666000Y-107276582D01*
X121666000Y-107276582D02*
X121665399Y-107275981D01*
X121665399Y-107275981D02*
X121665399Y-92012101D01*
X121665399Y-92012101D02*
X121666000Y-92011500D01*
X153670000Y-79903236D02*
X153309601Y-79542837D01*
X153309601Y-79542837D02*
X153309601Y-59774101D01*
X153309601Y-59774101D02*
X152908000Y-59372500D01*
X152908000Y-59372500D02*
X151765000Y-59372500D01*
X121666000Y-86677500D02*
X121666000Y-81851500D01*
X121666000Y-91376500D02*
X121666000Y-88201500D01*
X153670000Y-80327500D02*
X153670000Y-79903236D01*
X153670000Y-79903236D02*
X153669399Y-79902635D01*
X153670000Y-86682290D02*
X153670000Y-81846710D01*
X153670000Y-91376500D02*
X153670000Y-88196710D01*
X151765000Y-91376500D02*
X153670000Y-91376500D01*
X121666000Y-80332290D02*
X121666000Y-79908026D01*
X121666000Y-79908026D02*
X121665399Y-79907425D01*
X121665399Y-79907425D02*
X121665399Y-59373101D01*
X121665399Y-59373101D02*
X121666000Y-59372500D01*
X152908000Y-123380500D02*
X153670000Y-122618500D01*
X152146000Y-123380500D02*
X152908000Y-123380500D01*
X151765000Y-123380500D02*
X152146000Y-123380500D01*
X121666000Y-92011500D02*
X121666000Y-91376500D01*
X121031000Y-91376500D02*
X121666000Y-91376500D01*
X119761000Y-59372500D02*
X121666000Y-59372500D01*
X121666000Y-40830500D02*
X122428000Y-40068500D01*
X122428000Y-40068500D02*
X122428000Y-37909500D01*
X121031000Y-91376500D02*
X119761000Y-91376500D01*
X121666000Y-118681500D02*
X121666000Y-113855500D01*
X121666000Y-122542300D02*
X121666000Y-120332500D01*
X119761000Y-123380500D02*
X120827800Y-123380500D01*
X120827800Y-123380500D02*
X121666000Y-122542300D01*
D24*
X109601000Y-130746500D02*
X117602000Y-130746500D01*
X117602000Y-130746500D02*
X149606000Y-130746500D01*
D22*
X118237000Y-123380500D02*
X117602000Y-124015500D01*
X117602000Y-124015500D02*
X117602000Y-127063500D01*
X119761000Y-123380500D02*
X118237000Y-123380500D01*
D24*
X149606000Y-130746500D02*
X169037000Y-130746500D01*
D22*
X150495000Y-123380500D02*
X149606000Y-124269500D01*
X149606000Y-124269500D02*
X149606000Y-127063500D01*
X151384000Y-123380500D02*
X150495000Y-123380500D01*
X151765000Y-123380500D02*
X151384000Y-123380500D01*
X125603000Y-50609500D02*
X125603000Y-40703500D01*
X125603000Y-59118500D02*
X125603000Y-52705000D01*
X125603000Y-122618500D02*
X125603000Y-116713000D01*
X157480000Y-122618500D02*
X157480000Y-116740890D01*
X157480000Y-91249500D02*
X157480000Y-84736890D01*
X157480000Y-114490500D02*
X157480000Y-114066236D01*
X157480000Y-114066236D02*
X157480601Y-114065635D01*
X157480601Y-91250101D02*
X157480000Y-91249500D01*
X157480601Y-114065635D02*
X157480601Y-91250101D01*
X125603000Y-91249500D02*
X125603000Y-114236500D01*
X157607000Y-66655066D02*
X157607000Y-59753500D01*
X157607000Y-59753500D02*
X158115000Y-59245500D01*
X157480000Y-82486500D02*
X157480000Y-66782066D01*
X157480000Y-66782066D02*
X157607000Y-66655066D01*
X125603000Y-59245500D02*
X125603000Y-59118500D01*
X125603000Y-82872290D02*
X125603000Y-74404210D01*
X125603000Y-74404210D02*
X125603000Y-59118500D01*
X125603000Y-91249500D02*
X125603000Y-84386710D01*
X159385000Y-91249500D02*
X158318200Y-91249500D01*
X158318200Y-91249500D02*
X157480000Y-91249500D01*
X158115000Y-59245500D02*
X159385000Y-59245500D01*
X158115000Y-123253500D02*
X157480000Y-122618500D01*
X159004000Y-123253500D02*
X158115000Y-123253500D01*
X159385000Y-123253500D02*
X159004000Y-123253500D01*
X127381000Y-91249500D02*
X126314200Y-91249500D01*
X126314200Y-91249500D02*
X125603000Y-91249500D01*
X127381000Y-59245500D02*
X126314200Y-59245500D01*
X126314200Y-59245500D02*
X125603000Y-59245500D01*
X127000000Y-39941500D02*
X127508000Y-39433500D01*
X127508000Y-39433500D02*
X127508000Y-37909500D01*
X126365000Y-39941500D02*
X127000000Y-39941500D01*
X125603000Y-40703500D02*
X126365000Y-39941500D01*
X126238000Y-123253500D02*
X125603000Y-122618500D01*
X127381000Y-123253500D02*
X126238000Y-123253500D01*
D24*
X166224200Y-128206500D02*
X160782000Y-128206500D01*
X160782000Y-128206500D02*
X129159000Y-128206500D01*
D22*
X159385000Y-123253500D02*
X160451800Y-123253500D01*
X160451800Y-123253500D02*
X160782000Y-123583700D01*
X160782000Y-123583700D02*
X160782000Y-128206500D01*
D24*
X129159000Y-128206500D02*
X109601000Y-128206500D01*
D22*
X127381000Y-123253500D02*
X128447800Y-123253500D01*
X128447800Y-123253500D02*
X129159000Y-123964700D01*
X129159000Y-123964700D02*
X129159000Y-128206500D01*
D24*
X169037000Y-128206500D02*
X166224200Y-128206500D01*
D22*
X131191000Y-52852500D02*
X127424000Y-52852500D01*
X127424000Y-52852500D02*
X127381000Y-52895500D01*
X127381000Y-116903500D02*
X131148000Y-116903500D01*
X131148000Y-116903500D02*
X131191000Y-116860500D01*
X159385000Y-84899500D02*
X163025000Y-84899500D01*
X163025000Y-84899500D02*
X163195000Y-84729500D01*
X127381000Y-84899500D02*
X131148000Y-84899500D01*
X131148000Y-84899500D02*
X131191000Y-84856500D01*
X159385000Y-52895500D02*
X163111000Y-52895500D01*
X163111000Y-52895500D02*
X163195000Y-52979500D01*
X159385000Y-116903500D02*
X163152000Y-116903500D01*
X163152000Y-116903500D02*
X163195000Y-116860500D01*
X126258610Y-74718890D02*
X126258610Y-73744110D01*
X137590621Y-42204963D02*
X136342538Y-40956880D01*
X126258610Y-73744110D02*
X126238000Y-73723500D01*
X137590621Y-61862879D02*
X137590621Y-42204963D01*
X136342538Y-40956880D02*
X132766420Y-40956880D01*
X126238000Y-73723500D02*
X126238000Y-73215500D01*
X126238000Y-73215500D02*
X137590621Y-61862879D01*
X132766420Y-40956880D02*
X128447800Y-45275500D01*
X128447800Y-45275500D02*
X127381000Y-45275500D01*
X119761000Y-76593700D02*
X119761000Y-75607890D01*
X119761000Y-75607890D02*
X120650000Y-74718890D01*
X119761000Y-76593700D02*
X119761000Y-77279500D01*
X138176009Y-93662491D02*
X138176009Y-93535500D01*
X138176009Y-93535500D02*
X138176009Y-74794351D01*
X138176000Y-94784890D02*
X138176000Y-93535509D01*
X138176000Y-93535509D02*
X138176009Y-93535500D01*
X126365000Y-106595890D02*
X138176000Y-94784890D01*
X138176009Y-74794351D02*
X136342538Y-72960880D01*
X136342538Y-72960880D02*
X132766420Y-72960880D01*
X132766420Y-72960880D02*
X128447800Y-77279500D01*
X128447800Y-77279500D02*
X127381000Y-77279500D01*
X119761000Y-108597700D02*
X119761000Y-107230890D01*
X119761000Y-107230890D02*
X120396000Y-106595890D01*
X119761000Y-108597700D02*
X119761000Y-109283500D01*
X149987000Y-41465500D02*
X151765000Y-43243500D01*
X151765000Y-43243500D02*
X151765000Y-45275500D01*
X143227710Y-41465500D02*
X149987000Y-41465500D01*
X127381000Y-109283500D02*
X127381000Y-108597700D01*
X127381000Y-108597700D02*
X141051379Y-94927321D01*
X141051379Y-94927321D02*
X141051379Y-43641831D01*
X141051379Y-43641831D02*
X143227710Y-41465500D01*
X158496000Y-74866500D02*
X158496000Y-66484500D01*
X162208390Y-62772110D02*
X168136113Y-62772111D01*
X170307009Y-60601215D02*
X170307009Y-42862509D01*
X158496000Y-66484500D02*
X162208390Y-62772110D01*
X168136113Y-62772111D02*
X170307009Y-60601215D01*
X170307009Y-42862509D02*
X169926000Y-42481500D01*
X151765000Y-76593700D02*
X151765000Y-75755500D01*
X151765000Y-75755500D02*
X152654000Y-74866500D01*
X151765000Y-76593700D02*
X151765000Y-77279500D01*
X159385000Y-45275500D02*
X159385000Y-44589700D01*
X159385000Y-44589700D02*
X162382200Y-41592500D01*
X162382200Y-41592500D02*
X163449000Y-41592500D01*
X163732389Y-94776111D02*
X158432500Y-100076000D01*
X158432500Y-100076000D02*
X158432500Y-106129110D01*
X168136113Y-94776111D02*
X169799009Y-93113215D01*
X163732389Y-94776111D02*
X168136113Y-94776111D01*
X169799009Y-93113215D02*
X169799009Y-74275075D01*
X169799009Y-74275075D02*
X168484814Y-72960880D01*
X168484814Y-72960880D02*
X164770420Y-72960880D01*
X164770420Y-72960880D02*
X160451800Y-77279500D01*
X160451800Y-77279500D02*
X159385000Y-77279500D01*
X151765000Y-108597700D02*
X151765000Y-107484890D01*
X151765000Y-107484890D02*
X152654000Y-106595890D01*
X151765000Y-108597700D02*
X151765000Y-109283500D01*
M02*
