G04 #@! TF.FileFunction,Legend,Top*
%FSLAX46Y46*%
G04 Gerber Fmt 4.6, Leading zero omitted, Abs format (unit mm)*
G04 Created by KiCad (PCBNEW 4.0.2-1.fc23-product) date pon, 8 sie 2016, 18:36:25*
%MOMM*%
G01*
G04 APERTURE LIST*
%ADD10C,0.100000*%
%ADD11C,0.150000*%
%ADD12C,2.206400*%
%ADD13R,4.406400X1.930400*%
%ADD14R,2.133600X2.438400*%
%ADD15O,2.133600X2.438400*%
%ADD16R,1.930400X1.168400*%
%ADD17R,1.606400X1.156400*%
%ADD18R,1.306400X1.606400*%
G04 APERTURE END LIST*
D10*
D11*
X139319000Y-100012500D02*
X107319000Y-100012500D01*
X107319000Y-100012500D02*
X107319000Y-68012500D01*
X107319000Y-68012500D02*
X139319000Y-68012500D01*
X139319000Y-68012500D02*
X139319000Y-100012500D01*
X139319000Y-132016500D02*
X107319000Y-132016500D01*
X107319000Y-132016500D02*
X107319000Y-100016500D01*
X107319000Y-100016500D02*
X139319000Y-100016500D01*
X139319000Y-100016500D02*
X139319000Y-132016500D01*
X171323000Y-100012500D02*
X139323000Y-100012500D01*
X139323000Y-100012500D02*
X139323000Y-68012500D01*
X139323000Y-68012500D02*
X171323000Y-68012500D01*
X171323000Y-68012500D02*
X171323000Y-100012500D01*
X171323000Y-68008500D02*
X139323000Y-68008500D01*
X139323000Y-68008500D02*
X139323000Y-36008500D01*
X139323000Y-36008500D02*
X171323000Y-36008500D01*
X171323000Y-36008500D02*
X171323000Y-68008500D01*
X171323000Y-132016500D02*
X139323000Y-132016500D01*
X139323000Y-132016500D02*
X139323000Y-100016500D01*
X139323000Y-100016500D02*
X171323000Y-100016500D01*
X171323000Y-100016500D02*
X171323000Y-132016500D01*
X167037000Y-104822500D02*
X167037000Y-94822500D01*
X167037000Y-94822500D02*
X171037000Y-94822500D01*
X171037000Y-94822500D02*
X171037000Y-104822500D01*
X171037000Y-104822500D02*
X167037000Y-104822500D01*
X107601000Y-104822500D02*
X107601000Y-94822500D01*
X107601000Y-94822500D02*
X111601000Y-94822500D01*
X111601000Y-94822500D02*
X111601000Y-104822500D01*
X111601000Y-104822500D02*
X107601000Y-104822500D01*
X167037000Y-72818500D02*
X167037000Y-62818500D01*
X167037000Y-62818500D02*
X171037000Y-62818500D01*
X171037000Y-62818500D02*
X171037000Y-72818500D01*
X171037000Y-72818500D02*
X167037000Y-72818500D01*
X107601000Y-72818500D02*
X107601000Y-62818500D01*
X107601000Y-62818500D02*
X111601000Y-62818500D01*
X111601000Y-62818500D02*
X111601000Y-72818500D01*
X111601000Y-72818500D02*
X107601000Y-72818500D01*
X126238000Y-39179500D02*
X118618000Y-39179500D01*
X126238000Y-36639500D02*
X118618000Y-36639500D01*
X129058000Y-36359500D02*
X127508000Y-36359500D01*
X118618000Y-39179500D02*
X118618000Y-36639500D01*
X126238000Y-36639500D02*
X126238000Y-39179500D01*
X127508000Y-39459500D02*
X129058000Y-39459500D01*
X129058000Y-39459500D02*
X129058000Y-36359500D01*
X153035000Y-36639500D02*
X160655000Y-36639500D01*
X153035000Y-39179500D02*
X160655000Y-39179500D01*
X150215000Y-39459500D02*
X151765000Y-39459500D01*
X160655000Y-36639500D02*
X160655000Y-39179500D01*
X153035000Y-39179500D02*
X153035000Y-36639500D01*
X151765000Y-36359500D02*
X150215000Y-36359500D01*
X150215000Y-36359500D02*
X150215000Y-39459500D01*
X121158000Y-124904500D02*
X128778000Y-124904500D01*
X121158000Y-127444500D02*
X128778000Y-127444500D01*
X118338000Y-127724500D02*
X119888000Y-127724500D01*
X128778000Y-124904500D02*
X128778000Y-127444500D01*
X121158000Y-127444500D02*
X121158000Y-124904500D01*
X119888000Y-124624500D02*
X118338000Y-124624500D01*
X118338000Y-124624500D02*
X118338000Y-127724500D01*
X153035000Y-124904500D02*
X160655000Y-124904500D01*
X153035000Y-127444500D02*
X160655000Y-127444500D01*
X150215000Y-127724500D02*
X151765000Y-127724500D01*
X160655000Y-124904500D02*
X160655000Y-127444500D01*
X153035000Y-127444500D02*
X153035000Y-124904500D01*
X151765000Y-124624500D02*
X150215000Y-124624500D01*
X150215000Y-124624500D02*
X150215000Y-127724500D01*
X126365000Y-59880500D02*
X120777000Y-59880500D01*
X126365000Y-44640500D02*
X120777000Y-44640500D01*
X126365000Y-59880500D02*
X126365000Y-44640500D01*
X124206000Y-44640500D02*
X124206000Y-45910500D01*
X124206000Y-45910500D02*
X122936000Y-45910500D01*
X122936000Y-45910500D02*
X122936000Y-44640500D01*
X120777000Y-44640500D02*
X120777000Y-59880500D01*
X126365000Y-123888500D02*
X120777000Y-123888500D01*
X126365000Y-108648500D02*
X120777000Y-108648500D01*
X126365000Y-123888500D02*
X126365000Y-108648500D01*
X124206000Y-108648500D02*
X124206000Y-109918500D01*
X124206000Y-109918500D02*
X122936000Y-109918500D01*
X122936000Y-109918500D02*
X122936000Y-108648500D01*
X120777000Y-108648500D02*
X120777000Y-123888500D01*
X158369000Y-91884500D02*
X152781000Y-91884500D01*
X158369000Y-76644500D02*
X152781000Y-76644500D01*
X158369000Y-91884500D02*
X158369000Y-76644500D01*
X156210000Y-76644500D02*
X156210000Y-77914500D01*
X156210000Y-77914500D02*
X154940000Y-77914500D01*
X154940000Y-77914500D02*
X154940000Y-76644500D01*
X152781000Y-76644500D02*
X152781000Y-91884500D01*
X126365000Y-91884500D02*
X120777000Y-91884500D01*
X126365000Y-76644500D02*
X120777000Y-76644500D01*
X126365000Y-91884500D02*
X126365000Y-76644500D01*
X124206000Y-76644500D02*
X124206000Y-77914500D01*
X124206000Y-77914500D02*
X122936000Y-77914500D01*
X122936000Y-77914500D02*
X122936000Y-76644500D01*
X120777000Y-76644500D02*
X120777000Y-91884500D01*
X158369000Y-59880500D02*
X152781000Y-59880500D01*
X158369000Y-44640500D02*
X152781000Y-44640500D01*
X158369000Y-59880500D02*
X158369000Y-44640500D01*
X156210000Y-44640500D02*
X156210000Y-45910500D01*
X156210000Y-45910500D02*
X154940000Y-45910500D01*
X154940000Y-45910500D02*
X154940000Y-44640500D01*
X152781000Y-44640500D02*
X152781000Y-59880500D01*
X158369000Y-123888500D02*
X152781000Y-123888500D01*
X158369000Y-108648500D02*
X152781000Y-108648500D01*
X158369000Y-123888500D02*
X158369000Y-108648500D01*
X156210000Y-108648500D02*
X156210000Y-109918500D01*
X156210000Y-109918500D02*
X154940000Y-109918500D01*
X154940000Y-109918500D02*
X154940000Y-108648500D01*
X152781000Y-108648500D02*
X152781000Y-123888500D01*
X107601000Y-41068500D02*
X107601000Y-36068500D01*
X107601000Y-36068500D02*
X111601000Y-36068500D01*
X111601000Y-36068500D02*
X111601000Y-41068500D01*
X111601000Y-41068500D02*
X107601000Y-41068500D01*
X167037000Y-41068500D02*
X167037000Y-36068500D01*
X167037000Y-36068500D02*
X171037000Y-36068500D01*
X171037000Y-36068500D02*
X171037000Y-41068500D01*
X171037000Y-41068500D02*
X167037000Y-41068500D01*
X107601000Y-131746500D02*
X107601000Y-126746500D01*
X107601000Y-126746500D02*
X111601000Y-126746500D01*
X111601000Y-126746500D02*
X111601000Y-131746500D01*
X111601000Y-131746500D02*
X107601000Y-131746500D01*
X167037000Y-131746500D02*
X167037000Y-126746500D01*
X167037000Y-126746500D02*
X171037000Y-126746500D01*
X171037000Y-126746500D02*
X171037000Y-131746500D01*
X171037000Y-131746500D02*
X167037000Y-131746500D01*
X123921000Y-62512500D02*
X123221000Y-62512500D01*
X123221000Y-61312500D02*
X123921000Y-61312500D01*
X123921000Y-94516500D02*
X123221000Y-94516500D01*
X123221000Y-93316500D02*
X123921000Y-93316500D01*
X123921000Y-107216500D02*
X123221000Y-107216500D01*
X123221000Y-106016500D02*
X123921000Y-106016500D01*
X155925000Y-62512500D02*
X155225000Y-62512500D01*
X155225000Y-61312500D02*
X155925000Y-61312500D01*
X155925000Y-94516500D02*
X155225000Y-94516500D01*
X155225000Y-93316500D02*
X155925000Y-93316500D01*
X155925000Y-107216500D02*
X155225000Y-107216500D01*
X155225000Y-106016500D02*
X155925000Y-106016500D01*
X130516000Y-52252500D02*
X130516000Y-51252500D01*
X131866000Y-51252500D02*
X131866000Y-52252500D01*
X130516000Y-116260500D02*
X130516000Y-115260500D01*
X131866000Y-115260500D02*
X131866000Y-116260500D01*
X162520000Y-84129500D02*
X162520000Y-83129500D01*
X163870000Y-83129500D02*
X163870000Y-84129500D01*
X130516000Y-84256500D02*
X130516000Y-83256500D01*
X131866000Y-83256500D02*
X131866000Y-84256500D01*
X162520000Y-52379500D02*
X162520000Y-51379500D01*
X163870000Y-51379500D02*
X163870000Y-52379500D01*
X162520000Y-116260500D02*
X162520000Y-115260500D01*
X163870000Y-115260500D02*
X163870000Y-116260500D01*
X139319000Y-68008500D02*
X107319000Y-68008500D01*
X107319000Y-68008500D02*
X107319000Y-36008500D01*
X107319000Y-36008500D02*
X139319000Y-36008500D01*
X139319000Y-36008500D02*
X139319000Y-68008500D01*
%LPC*%
D12*
X111319000Y-93012500D03*
X111319000Y-90472500D03*
X111319000Y-87932500D03*
X111319000Y-85392500D03*
X111319000Y-82852500D03*
X111319000Y-80312500D03*
X111319000Y-77772500D03*
X111319000Y-75232500D03*
X135319000Y-93012500D03*
X135319000Y-90472500D03*
X135319000Y-87932500D03*
X135319000Y-85392500D03*
X135319000Y-82852500D03*
X135319000Y-80312500D03*
X135319000Y-77772500D03*
X135319000Y-75232500D03*
X111319000Y-125016500D03*
X111319000Y-122476500D03*
X111319000Y-119936500D03*
X111319000Y-117396500D03*
X111319000Y-114856500D03*
X111319000Y-112316500D03*
X111319000Y-109776500D03*
X111319000Y-107236500D03*
X135319000Y-125016500D03*
X135319000Y-122476500D03*
X135319000Y-119936500D03*
X135319000Y-117396500D03*
X135319000Y-114856500D03*
X135319000Y-112316500D03*
X135319000Y-109776500D03*
X135319000Y-107236500D03*
X143323000Y-93012500D03*
X143323000Y-90472500D03*
X143323000Y-87932500D03*
X143323000Y-85392500D03*
X143323000Y-82852500D03*
X143323000Y-80312500D03*
X143323000Y-77772500D03*
X143323000Y-75232500D03*
X167323000Y-93012500D03*
X167323000Y-90472500D03*
X167323000Y-87932500D03*
X167323000Y-85392500D03*
X167323000Y-82852500D03*
X167323000Y-80312500D03*
X167323000Y-77772500D03*
X167323000Y-75232500D03*
X143323000Y-61008500D03*
X143323000Y-58468500D03*
X143323000Y-55928500D03*
X143323000Y-53388500D03*
X143323000Y-50848500D03*
X143323000Y-48308500D03*
X143323000Y-45768500D03*
X143323000Y-43228500D03*
X167323000Y-61008500D03*
X167323000Y-58468500D03*
X167323000Y-55928500D03*
X167323000Y-53388500D03*
X167323000Y-50848500D03*
X167323000Y-48308500D03*
X167323000Y-45768500D03*
X167323000Y-43228500D03*
X143323000Y-125016500D03*
X143323000Y-122476500D03*
X143323000Y-119936500D03*
X143323000Y-117396500D03*
X143323000Y-114856500D03*
X143323000Y-112316500D03*
X143323000Y-109776500D03*
X143323000Y-107236500D03*
X167323000Y-125016500D03*
X167323000Y-122476500D03*
X167323000Y-119936500D03*
X167323000Y-117396500D03*
X167323000Y-114856500D03*
X167323000Y-112316500D03*
X167323000Y-109776500D03*
X167323000Y-107236500D03*
D13*
X169037000Y-103822500D03*
X169037000Y-101282500D03*
X169037000Y-98742500D03*
X169037000Y-96202500D03*
X109601000Y-103822500D03*
X109601000Y-101282500D03*
X109601000Y-98742500D03*
X109601000Y-96202500D03*
X169037000Y-71818500D03*
X169037000Y-69278500D03*
X169037000Y-66738500D03*
X169037000Y-64198500D03*
X109601000Y-71818500D03*
X109601000Y-69278500D03*
X109601000Y-66738500D03*
X109601000Y-64198500D03*
D14*
X127508000Y-37909500D03*
D15*
X124968000Y-37909500D03*
X122428000Y-37909500D03*
X119888000Y-37909500D03*
D14*
X151765000Y-37909500D03*
D15*
X154305000Y-37909500D03*
X156845000Y-37909500D03*
X159385000Y-37909500D03*
D14*
X119888000Y-126174500D03*
D15*
X122428000Y-126174500D03*
X124968000Y-126174500D03*
X127508000Y-126174500D03*
D14*
X151765000Y-126174500D03*
D15*
X154305000Y-126174500D03*
X156845000Y-126174500D03*
X159385000Y-126174500D03*
D16*
X119761000Y-45275500D03*
X119761000Y-46545500D03*
X119761000Y-47815500D03*
X119761000Y-49085500D03*
X119761000Y-50355500D03*
X119761000Y-51625500D03*
X119761000Y-52895500D03*
X119761000Y-54165500D03*
X119761000Y-55435500D03*
X119761000Y-56705500D03*
X119761000Y-57975500D03*
X119761000Y-59372500D03*
X127381000Y-45275500D03*
X127381000Y-46545500D03*
X127381000Y-47815500D03*
X127381000Y-49085500D03*
X127381000Y-50355500D03*
X127381000Y-51625500D03*
X127381000Y-52895500D03*
X127381000Y-54165500D03*
X127381000Y-55435500D03*
X127381000Y-56705500D03*
X127381000Y-57975500D03*
X127381000Y-59245500D03*
X119761000Y-109283500D03*
X119761000Y-110553500D03*
X119761000Y-111823500D03*
X119761000Y-113093500D03*
X119761000Y-114363500D03*
X119761000Y-115633500D03*
X119761000Y-116903500D03*
X119761000Y-118173500D03*
X119761000Y-119443500D03*
X119761000Y-120713500D03*
X119761000Y-121983500D03*
X119761000Y-123380500D03*
X127381000Y-109283500D03*
X127381000Y-110553500D03*
X127381000Y-111823500D03*
X127381000Y-113093500D03*
X127381000Y-114363500D03*
X127381000Y-115633500D03*
X127381000Y-116903500D03*
X127381000Y-118173500D03*
X127381000Y-119443500D03*
X127381000Y-120713500D03*
X127381000Y-121983500D03*
X127381000Y-123253500D03*
X151765000Y-77279500D03*
X151765000Y-78549500D03*
X151765000Y-79819500D03*
X151765000Y-81089500D03*
X151765000Y-82359500D03*
X151765000Y-83629500D03*
X151765000Y-84899500D03*
X151765000Y-86169500D03*
X151765000Y-87439500D03*
X151765000Y-88709500D03*
X151765000Y-89979500D03*
X151765000Y-91376500D03*
X159385000Y-77279500D03*
X159385000Y-78549500D03*
X159385000Y-79819500D03*
X159385000Y-81089500D03*
X159385000Y-82359500D03*
X159385000Y-83629500D03*
X159385000Y-84899500D03*
X159385000Y-86169500D03*
X159385000Y-87439500D03*
X159385000Y-88709500D03*
X159385000Y-89979500D03*
X159385000Y-91249500D03*
X119761000Y-77279500D03*
X119761000Y-78549500D03*
X119761000Y-79819500D03*
X119761000Y-81089500D03*
X119761000Y-82359500D03*
X119761000Y-83629500D03*
X119761000Y-84899500D03*
X119761000Y-86169500D03*
X119761000Y-87439500D03*
X119761000Y-88709500D03*
X119761000Y-89979500D03*
X119761000Y-91376500D03*
X127381000Y-77279500D03*
X127381000Y-78549500D03*
X127381000Y-79819500D03*
X127381000Y-81089500D03*
X127381000Y-82359500D03*
X127381000Y-83629500D03*
X127381000Y-84899500D03*
X127381000Y-86169500D03*
X127381000Y-87439500D03*
X127381000Y-88709500D03*
X127381000Y-89979500D03*
X127381000Y-91249500D03*
X151765000Y-45275500D03*
X151765000Y-46545500D03*
X151765000Y-47815500D03*
X151765000Y-49085500D03*
X151765000Y-50355500D03*
X151765000Y-51625500D03*
X151765000Y-52895500D03*
X151765000Y-54165500D03*
X151765000Y-55435500D03*
X151765000Y-56705500D03*
X151765000Y-57975500D03*
X151765000Y-59372500D03*
X159385000Y-45275500D03*
X159385000Y-46545500D03*
X159385000Y-47815500D03*
X159385000Y-49085500D03*
X159385000Y-50355500D03*
X159385000Y-51625500D03*
X159385000Y-52895500D03*
X159385000Y-54165500D03*
X159385000Y-55435500D03*
X159385000Y-56705500D03*
X159385000Y-57975500D03*
X159385000Y-59245500D03*
X151765000Y-109283500D03*
X151765000Y-110553500D03*
X151765000Y-111823500D03*
X151765000Y-113093500D03*
X151765000Y-114363500D03*
X151765000Y-115633500D03*
X151765000Y-116903500D03*
X151765000Y-118173500D03*
X151765000Y-119443500D03*
X151765000Y-120713500D03*
X151765000Y-121983500D03*
X151765000Y-123380500D03*
X159385000Y-109283500D03*
X159385000Y-110553500D03*
X159385000Y-111823500D03*
X159385000Y-113093500D03*
X159385000Y-114363500D03*
X159385000Y-115633500D03*
X159385000Y-116903500D03*
X159385000Y-118173500D03*
X159385000Y-119443500D03*
X159385000Y-120713500D03*
X159385000Y-121983500D03*
X159385000Y-123253500D03*
D13*
X109601000Y-40068500D03*
X109601000Y-37528500D03*
X169037000Y-40068500D03*
X169037000Y-37528500D03*
X109601000Y-130746500D03*
X109601000Y-128206500D03*
X169037000Y-130746500D03*
X169037000Y-128206500D03*
D17*
X124521000Y-61912500D03*
X122621000Y-61912500D03*
X124521000Y-93916500D03*
X122621000Y-93916500D03*
X124521000Y-106616500D03*
X122621000Y-106616500D03*
X156525000Y-61912500D03*
X154625000Y-61912500D03*
X156525000Y-93916500D03*
X154625000Y-93916500D03*
X156525000Y-106616500D03*
X154625000Y-106616500D03*
D18*
X131191000Y-50652500D03*
X131191000Y-52852500D03*
X131191000Y-114660500D03*
X131191000Y-116860500D03*
X163195000Y-82529500D03*
X163195000Y-84729500D03*
X131191000Y-82656500D03*
X131191000Y-84856500D03*
X163195000Y-50779500D03*
X163195000Y-52979500D03*
X163195000Y-114660500D03*
X163195000Y-116860500D03*
D12*
X111319000Y-61008500D03*
X111319000Y-58468500D03*
X111319000Y-55928500D03*
X111319000Y-53388500D03*
X111319000Y-50848500D03*
X111319000Y-48308500D03*
X111319000Y-45768500D03*
X111319000Y-43228500D03*
X135319000Y-61008500D03*
X135319000Y-58468500D03*
X135319000Y-55928500D03*
X135319000Y-53388500D03*
X135319000Y-50848500D03*
X135319000Y-48308500D03*
X135319000Y-45768500D03*
X135319000Y-43228500D03*
M02*
